<svg width="376" height="334" viewBox="0 0 376 334" fill="none" xmlns="http://www.w3.org/2000/svg">
<g clip-path="url(#clip0_163_777)">
<path d="M371.06 155.902L375.932 140.392L359.812 140.895C358.45 140.895 348.55 140.615 338.946 133.691C339.662 133.761 340.378 133.859 341.108 133.859C350.993 133.859 360.556 127.939 364.389 119.481L371.326 104.195C362.634 104.306 354.687 103.217 354.687 103.217C354.617 103.204 348.354 102.408 341.108 95.051C335.913 89.7747 329.482 86.983 322.517 86.983C319.469 86.983 316.746 87.5268 314.4 88.2667C314.765 87.0244 315.116 85.7683 315.313 84.4701C317.532 70.1616 308.265 59.2452 308.265 59.2588L296.146 44.3361L288.634 61.8692C288.606 61.9251 286.709 66.029 283.312 68.0393C282.287 62.8883 279.773 57.0949 274.395 51.5535C264.257 41.1114 251.914 39.5619 245.455 39.5619C242.464 39.5619 240.33 39.8827 239.81 39.9667L225.178 42.8282C226.021 39.5755 227.818 33.9221 231.104 28.827L239.179 16.3194L218.859 18.6225L212.386 4.95582L199.861 11.3772L188.276 0L176.72 11.3772L164.152 4.95582L157.693 18.6225L137.388 16.3194L145.476 28.827C148.762 33.9221 150.559 39.5619 151.388 42.8146L137.431 40.0786L136.953 39.9946C136.251 39.8827 134.131 39.5619 131.126 39.5619C124.667 39.5619 112.324 41.125 102.213 51.5535C96.821 57.0813 94.3077 62.8883 93.2688 68.0393C89.8988 66.057 88.0168 62.0091 88.0168 62.0091L80.491 44.3777L68.1753 59.3981C66.6735 61.3388 59.2456 71.5992 61.2669 84.4977C61.478 85.7821 61.8154 87.0389 62.1803 88.2812C59.8492 87.5413 57.1249 86.9961 54.0778 86.9961C47.1135 86.9961 40.6818 89.7885 35.4725 95.0648C28.2544 102.394 22.02 103.217 22.0766 103.217C22.0766 103.217 15.4904 104.39 5.29602 104.209L12.191 119.495C16.0242 127.968 25.6011 133.873 35.4725 133.873C36.2162 133.873 36.9323 133.776 37.6629 133.705C28.0861 140.63 18.1871 140.909 16.9934 140.922L0.563965 140.392L5.53485 155.888C8.03433 163.872 16.3893 177.106 32.3971 178.53C30.6559 185.789 26.7946 193.914 18.3134 197.417L6.08302 202.428L12.7527 213.973C16.5156 220.199 25.3486 227.486 37.9299 227.486C40.6535 227.472 43.2792 227.207 45.8075 226.677C46.4533 229.524 47.2673 232.372 48.2221 235.192C51.9716 246.276 48.7416 254.009 48.7002 254.094L42.6617 266.67L56.1419 270.202C56.3102 270.259 60.3825 271.362 65.4793 271.362C67.7966 271.362 70.0014 271.124 72.08 270.635C73.6522 270.272 75.1548 269.784 76.6008 269.198C78.342 272.31 80.4627 275.144 82.9345 277.685C91.5696 286.493 103.8 290.961 119.303 290.961H119.358L130.424 290.821L107.564 300.257L124.92 308.591C131.224 311.649 138.709 315.264 146.319 318.028L144.157 323.919L150.139 326.628C150.672 326.865 162.172 331.988 181.297 333.077C181.297 333.077 185.917 333.286 188.459 333.286C191 333.286 195.564 333.062 195.564 333.062C214.562 331.946 225.978 326.878 226.512 326.628L232.508 323.905L230.318 318C238.153 315.153 245.904 311.398 251.942 308.465L268.975 300.244L246.185 290.793L257.293 290.933C272.808 290.933 285.053 286.466 293.674 277.643C296.132 275.117 298.252 272.282 300.007 269.17C301.454 269.756 302.97 270.245 304.543 270.607C306.607 271.096 308.812 271.333 311.129 271.333C316.142 271.333 320.256 270.23 320.368 270.202L333.904 266.643L328.007 254.303C327.867 253.981 324.637 246.262 328.386 235.164C329.341 232.33 330.141 229.482 330.788 226.648C333.329 227.179 335.983 227.458 338.721 227.458C354.743 227.458 362.424 216.249 363.913 213.82L370.512 202.401L358.282 197.403C349.786 193.899 345.939 185.761 344.212 178.516C359.995 177.176 368.476 163.942 371.06 155.902ZM152.456 48.1608L152.287 48.2031L152.427 48.0215L152.456 48.1608Z" fill="white"/>
<path d="M188.292 47.4767C175.344 47.4903 165.641 51.7062 163.521 56.662L188.292 66.3778L213.062 56.662C210.956 51.7062 201.253 47.4903 188.292 47.4767Z" fill="white"/>
<path d="M188.544 304.683H188.516H188.305H188.067H188.053C180.203 304.739 169.405 303.133 164.195 301.625L157.933 318.474C162.061 319.94 176.047 322.733 188.305 322.733C200.535 322.733 214.536 319.926 218.65 318.474L212.402 301.625C207.177 303.146 196.393 304.739 188.544 304.683Z" fill="white"/>
<path d="M235.937 287.932C231.275 290.556 220.87 294.493 214.818 296.322L219.901 310.239C229.267 307.699 236.99 304.726 243.378 301.542L232.833 298.052L235.937 287.932Z" fill="white"/>
<path d="M140.663 287.932L143.781 298.052L133.221 301.542C139.596 304.726 147.361 307.699 156.685 310.239L161.768 296.322C155.745 294.493 145.325 290.543 140.663 287.932Z" fill="white"/>
<path d="M188.292 31.3672C198.051 31.3672 207.628 33.6847 214.986 37.7613C215.66 35.5134 216.6 32.7911 217.879 29.944L215.099 30.2784L212.178 30.5856L210.942 27.9472L207.222 20.1299L200.439 23.6481L197.799 24.9882L195.692 22.9219L188.32 15.6628L180.963 22.9219L178.856 24.9882L176.216 23.6481L169.392 20.1299L165.713 27.9472L164.449 30.5856L161.528 30.2784L158.748 29.944C160.027 32.8055 160.953 35.5134 161.641 37.7613C169.013 33.6847 178.561 31.3672 188.292 31.3672Z" fill="white"/>
<path d="M337.292 121.716C338.555 122.148 339.847 122.344 341.125 122.344C346.644 122.344 351.979 118.798 353.819 114.735C353.819 114.735 343.694 114.121 332.812 103.135C329.344 99.5751 325.679 98.5143 322.533 98.5143C317.647 98.5143 313.982 101.082 313.982 101.082C327.125 108.035 329.807 119.203 337.292 121.716Z" fill="white"/>
<path d="M35.4629 122.344C36.7406 122.344 38.0327 122.148 39.2682 121.716C46.781 119.203 49.477 108.035 62.6198 101.082C62.6198 101.082 58.9407 98.5143 54.0819 98.5143C50.923 98.5143 47.2577 99.5751 43.7759 103.135C32.9069 114.121 22.783 114.735 22.783 114.735C24.5939 118.798 29.9439 122.344 35.4629 122.344Z" fill="white"/>
<path d="M340.858 167.097C341.084 167.11 341.281 167.11 341.519 167.11C355.294 167.11 359.97 152.439 359.97 152.439H359.703C357.175 152.439 336.688 151.852 322.211 133.551C312.676 121.518 304.87 110.937 289.437 106.777L287.921 106.511L287.584 104.976C287.163 102.63 288.777 100.439 292.442 98.0664C313.73 84.2044 299.281 66.5311 299.281 66.5311C299.281 66.5311 293.201 80.6721 279.593 80.6721C279.271 80.6721 278.92 80.6583 278.583 80.6583C277.038 80.5748 275.549 80.5189 274.048 80.198L271.534 79.7093C271.534 79.7093 275.41 69.2257 266.057 59.593C259.008 52.3204 250.429 51.0917 245.472 51.0917C242.973 51.0917 241.386 51.4132 241.386 51.4132C246.09 57.5274 249.488 67.6622 244.054 73.9154C239.364 79.2904 227.906 79.5554 227.906 87.5683C227.906 90.9604 231.093 94.9254 236.823 98.4846C254.052 109.275 271.155 123.585 278.26 142.764C287.149 166.692 277.137 182.563 262.842 191.665C262.842 191.665 267.322 195.769 273.823 196.286C275.143 196.412 276.434 196.467 277.642 196.467C291.361 196.467 298.452 190.074 298.452 190.074C298.452 190.074 297.287 198.91 290.14 207.119C283.554 214.698 274.904 219.152 261.719 219.347C261.719 219.347 261.297 225.434 267.138 230.696C270.874 234.019 279.51 235.108 279.51 235.108C279.51 235.108 263.348 238.36 261.564 262.092C260.595 274.948 257.295 279.415 257.295 279.415H257.59C295.096 279.415 294.127 247.434 294.127 247.434C294.127 247.434 296.739 256.898 307.201 259.369C308.464 259.705 309.812 259.83 311.104 259.83C314.474 259.83 317.395 259.048 317.395 259.048C317.395 259.048 311.918 247.56 317.352 231.492C321.86 218.161 321.129 208.277 321.129 208.277C321.129 208.277 326.185 215.871 338.711 215.941H338.837C349.27 215.941 353.819 208.082 353.819 208.082C328.811 197.766 331.282 164.458 331.282 164.458C331.282 164.458 334.526 166.859 340.858 167.097ZM333.332 201.883C323.166 196.9 316.735 183.666 315.176 178.892C313.492 205.136 300.601 223.354 285.534 240.887C277.713 249.975 274.988 258.811 274.988 258.811C274.988 258.811 276.491 248.802 283.259 240.649C297.316 223.856 310.668 202.958 311.666 178.794C312.353 161.931 307.987 148.251 301.176 136.986C304.981 148.725 304.448 163.104 291.516 176.519C291.516 176.519 317.254 145.85 281.266 114.413C266.858 102.449 251.103 95.0648 242.987 89.8292C272.306 99.3363 286.615 88.8665 286.615 88.8665C277.249 96.9352 265.131 96.7958 257.619 95.637C259.655 96.6287 261.775 97.6612 264.064 98.8759C288.777 112.221 310.992 134.179 314.783 164.598V164.36C320.54 194.22 333.332 201.883 333.332 201.883Z" fill="white"/>
<path d="M97.077 235.108C97.077 235.108 105.712 234.032 109.448 230.696C115.274 225.434 114.868 219.347 114.868 219.347C101.668 219.166 93.0329 214.698 86.4046 207.133C79.3141 198.924 78.1344 190.088 78.1344 190.088C78.1344 190.088 85.2249 196.481 98.93 196.481C100.166 196.481 101.444 196.425 102.764 196.3C109.265 195.784 113.758 191.679 113.758 191.679C99.4639 182.578 89.438 166.692 98.3125 142.764C105.432 123.598 122.521 109.275 139.75 98.4846C145.479 94.9254 148.666 90.9742 148.666 87.5683C148.666 79.5554 137.223 79.2904 132.533 73.9154C127.098 67.6622 130.51 57.513 135.2 51.4132C135.2 51.4132 133.642 51.0917 131.128 51.0917C126.185 51.0917 117.606 52.3204 110.557 59.593C101.177 69.2257 105.066 79.7093 105.066 79.7093L102.553 80.198C101.051 80.5189 99.5481 80.5748 98.0173 80.6583C97.6668 80.6583 97.357 80.6721 97.0204 80.6721C83.3857 80.6721 77.3334 66.5455 77.3334 66.5455C77.3334 66.5455 62.884 84.2175 84.1584 98.0795C87.823 100.453 89.4235 102.645 89.0027 104.99L88.6653 106.526L87.1207 106.791C71.7172 110.95 63.8961 121.533 54.3613 133.566C39.9119 151.839 19.453 152.439 16.8976 152.439H16.6163C16.6163 152.439 21.2922 167.11 35.0676 167.11C35.2918 167.11 35.4885 167.11 35.7271 167.097C42.0609 166.872 45.3185 164.458 45.3185 164.458C45.3185 164.458 47.7613 197.752 22.781 208.082C22.781 208.082 27.3307 215.941 37.7637 215.941H37.8899C50.4291 215.871 55.4707 208.277 55.4707 208.277C55.4707 208.277 54.7401 218.161 59.2332 231.492C64.668 247.56 59.2201 259.048 59.2201 259.048C59.2201 259.048 62.1404 259.83 65.4966 259.83C66.8018 259.83 68.1367 259.705 69.3861 259.369C79.8329 256.898 82.4592 247.434 82.4592 247.434C82.4592 247.434 81.5037 279.415 119.01 279.415H119.277C119.277 279.415 115.991 274.948 115.036 262.092C113.239 238.36 97.077 235.108 97.077 235.108ZM91.053 240.887C75.9854 223.354 63.1096 205.136 61.4098 178.892C59.852 183.652 53.4479 196.9 43.2826 201.883C43.2826 201.883 56.0605 194.22 61.803 164.36V164.598C65.609 134.194 87.8092 112.221 112.537 98.8759C114.798 97.6468 116.945 96.6143 118.968 95.637C111.455 96.7958 99.3377 96.9352 89.9719 88.8665C89.9719 88.8665 104.281 99.3363 133.585 89.8292C125.469 95.0648 109.729 102.449 95.3212 114.413C59.3181 145.85 85.0711 176.519 85.0711 176.519C72.1242 163.09 71.6047 148.725 75.4101 136.986C68.5858 148.264 64.232 161.931 64.935 178.794C65.9174 202.958 79.2713 223.856 93.2999 240.649C100.081 248.788 101.612 258.811 101.612 258.811C101.612 258.811 98.8596 249.975 91.053 240.887Z" fill="white"/>
<path d="M160.561 118.182C161.179 118.838 161.782 119.55 162.358 120.262C162.499 120.43 162.625 120.583 162.765 120.778C163.299 121.491 163.847 122.244 164.366 123.012C164.478 123.166 164.591 123.347 164.717 123.529C165.349 124.478 165.939 125.455 166.529 126.46C171.935 135.744 180.599 141.285 188.28 141.3C195.975 141.285 204.61 135.744 210.044 126.46C210.648 125.427 211.252 124.422 211.884 123.487C211.982 123.347 212.08 123.222 212.164 123.081C212.698 122.286 213.26 121.504 213.85 120.751C213.976 120.583 214.089 120.444 214.2 120.304C214.805 119.564 215.422 118.838 216.054 118.168C216.167 118.056 216.251 117.959 216.349 117.875C219.101 115.069 222.388 112.933 226.684 111.747L224.775 110.644H224.662L217.052 106.246L209.23 101.793L188.336 113.1L188.28 113.059L188.238 113.1L167.329 101.793L159.522 106.232L151.897 110.63H151.813L149.874 111.732C154.185 112.919 157.457 115.027 160.224 117.833C160.35 117.945 160.434 118.071 160.561 118.182ZM179.827 117.274H188.673H197.505V123.305C195.427 120.778 191.383 121.295 191.383 121.295V129.992C191.383 129.992 191.537 134.264 193.04 136.121H188.673H184.291C185.822 134.277 185.962 129.992 185.962 129.992V121.295C185.962 121.295 181.933 120.778 179.827 123.305V117.274Z" fill="white"/>
<path d="M186.482 105.576V70.2727L163.874 62.6502L169.842 96.8662L186.482 105.576ZM181.623 78.9419V84.6088L180.528 84.1064C180.472 84.065 178.87 83.7012 176.063 81.4962C171.428 77.9225 171.345 74.6283 171.345 74.6283L181.623 78.9419Z" fill="white"/>
<path d="M206.759 96.8662L212.7 62.6502L190.106 70.2727V105.576L206.759 96.8662ZM194.965 78.9419L205.243 74.6421C205.243 74.6421 205.159 77.9363 200.511 81.51C197.716 83.7157 196.101 84.0781 196.046 84.1209L194.95 84.6233V78.9419H194.965Z" fill="white"/>
<path d="M154.508 187.422C156.712 188.218 159.381 188.386 160.743 188.386C160.799 188.218 160.87 188.009 160.94 187.758C161.066 187.352 161.178 186.962 161.263 186.515C161.642 184.561 161.782 182.341 161.81 180.917C160.883 180.344 159.577 179.326 158.847 177.804C158.005 176.045 156.811 175.236 155.055 175.236C152.781 175.236 150.338 176.59 149.299 177.232C148.47 182.104 152.079 186.529 154.508 187.422Z" fill="white"/>
<path d="M204.514 168.687C200.316 173.223 192.102 181.125 191.694 181.53L191.203 182.032L165.239 181.627C165.225 184.183 164.804 186.36 164.396 187.951C164.327 188.217 164.256 188.496 164.186 188.775L195.078 194.289C198.294 192.055 207.14 185.633 210.566 183.121C208.067 179.491 207.829 175.192 208.39 172.163C206.761 171.116 205.511 169.944 204.514 168.687Z" fill="white"/>
<path d="M208.033 137.643C202.052 143.549 196.308 145.726 191.183 146.229C190.257 146.326 189.316 146.382 188.361 146.382H188.291H188.234C187.279 146.382 186.325 146.326 185.398 146.229C184.499 146.145 183.559 146.005 182.617 145.796C182.28 147.123 181.859 149.901 183.068 152.525C184.149 154.912 186.353 156.684 189.568 157.857L190.649 158.276L190.664 159.435C190.664 159.784 190.916 167.293 199.159 169.374C200.507 167.992 201.729 166.75 202.628 165.717C200.942 161.78 201.827 157.759 204.27 155.792C204.158 156.21 203.091 166.066 211.039 169.723L212.344 170.338L211.951 171.719C211.825 172.138 209.171 181.672 218.789 185.218L220.489 185.86L219.73 187.508C219.562 187.871 215.785 196.525 224.673 201.439H243.952V186.223C237.101 185.386 234.194 179.913 233.45 176.032C230.261 175.488 227.791 174.121 226.105 171.886C222.061 166.596 225.544 161.752 225.586 161.486C225.571 161.529 225.586 166.694 228.787 169.877C230.374 171.412 232.256 172.598 235.106 172.864L236.51 172.989L236.637 174.413C236.665 174.72 237.437 181.701 243.967 182.803L243.952 151.73C243.952 146.913 245.371 142.069 247.07 137.602H208.033V137.643Z" fill="white"/>
<path d="M156.152 151.879L155.633 171.673L157.893 172.009L163.426 153.024L160.617 147.188L156.152 151.879Z" fill="white"/>
<path d="M217.148 242.661C217.317 242.661 217.514 242.689 217.697 242.731C221.136 243.708 222.008 256.047 228.045 257.151C228.635 257.277 229.182 257.304 229.66 257.304C231.401 257.304 232.44 256.564 233.564 255.252C233.564 255.252 230.53 250.506 228.256 247.309C225.236 243.121 222.892 238.054 217.274 238.054C217.148 238.054 216.98 238.054 216.84 238.068C214.986 238.166 213.849 239.06 213.849 239.06C211.574 237.635 209.453 237.147 207.53 237.147C204.005 237.147 201.267 238.752 199.905 238.752H199.849L187.295 237.523C185.33 237.342 183.785 235.374 183.224 234.606C183.083 234.396 183.012 234.271 183.012 234.271C183.012 233.936 183.012 233.587 182.985 233.28C182.563 223.075 174.616 218.706 171.793 218.636C171.793 218.636 172.13 216.696 171.358 215.956L168.592 219.292L159.506 214.755L165.979 222.28L160.489 228.408C159.802 229.106 159.886 230.055 160.167 230.446L162.54 232.526L165.544 230.711C165.699 230.6 165.966 230.571 166.302 230.571C167.131 230.571 168.381 230.781 169.504 230.781C170.726 230.781 171.793 230.515 171.92 229.371C171.541 233.154 168.016 239.729 170.333 244.894L172.046 248.789L160.953 247.197L155.758 255.922C154.157 258.826 153.903 261.967 155.448 263.67L157.386 266.085C157.386 266.085 160.111 263.209 160.728 261.325L159.844 260.362C159.099 259.551 159.141 258.826 159.591 257.947L162.848 252.572L175.95 255.643L176.637 254.471C177.522 253.004 178.8 252.558 180.205 252.558C180.78 252.558 181.37 252.628 181.987 252.726C184.417 253.2 188.419 253.842 192.421 253.842C196.816 253.842 201.169 253.06 203.486 250.478C208.231 257.472 217.85 258.589 217.092 262.135L214.565 274.112C216.236 274.042 217.85 273.93 219.381 273.721L221.782 261.255C222.049 259.901 222.302 258.072 222.302 258.072C221.376 257.137 219.129 255.155 217.864 252.753C216.166 249.515 217.092 247.825 215.506 243.61C215.562 243.638 216.039 242.661 217.148 242.661ZM168.142 225.155C167.497 225.141 167.033 224.597 167.061 223.955C167.118 223.34 167.637 222.852 168.269 222.908C168.915 222.936 169.378 223.494 169.35 224.109C169.294 224.722 168.76 225.198 168.142 225.155Z" fill="white"/>
<path d="M150.256 253.994C150.256 253.994 154.595 252.221 154.988 250.951L154.413 249.513C154.005 248.578 154.062 247.559 154.848 247L159.538 243.776L167.374 245.269C167.374 245.269 165.955 243.511 166.096 241.151L158.625 239.574L151.576 243.845C148.557 246.093 148.332 249.764 149.329 251.942L150.256 253.994Z" fill="white"/>
<path d="M205.637 274.291C207.041 274.236 208.585 274.208 210.285 274.208C210.285 274.208 214.315 262.496 214.54 262.119C212.279 261.128 207.589 258.657 205.778 257.526C206.972 259.299 209.878 261.338 209.302 262.901L205.637 274.291Z" fill="white"/>
<path d="M243.998 204.83H132.603V246.486C132.603 263.516 145.002 274.182 163.299 274.182C178.591 274.182 182.621 274.768 188.308 280.38C192.225 276.499 195.47 275.048 202.125 274.502L202.28 273.861L205.79 263.07C205.593 262.832 199.851 256.341 199.851 256.341C197.576 257.095 195.666 257.221 192.451 257.221C189.15 257.221 185.429 256.844 181.4 256.09C180.992 255.993 180.613 255.965 180.234 255.965C179.742 255.965 179.7 256.007 179.573 256.244L178.871 257.388L177.593 259.482L175.193 258.938L164.507 256.439L163.047 258.84L163.271 259.091L164.577 260.515L164.002 262.372C163.215 264.801 160.659 267.635 159.887 268.417L157.219 271.264L154.79 268.207L152.964 265.932C151.041 263.796 150.591 260.515 151.673 257.081C151.644 257.11 151.602 257.123 151.56 257.123L148.542 258.366L147.179 255.435L146.224 253.354C144.581 249.697 145.185 244.35 149.608 241.125L158.216 236.295L166.403 237.901C166.6 237.119 166.894 234.327 167.132 233.615C166.978 233.602 166.824 233.559 166.669 233.559L161.951 235.304L157.402 232.177C157.402 232.177 155.619 230.475 157.233 228.771L161.642 222.14L150.479 208.209L167.638 215.217L168.776 213.807L171.093 211.057L173.718 213.541C174.463 214.253 174.884 215.132 175.094 216.012C179.826 217.841 188.294 223.243 189.038 232.024L186.384 233.085V233.155C186.988 233.866 187.493 234.16 187.648 234.187L199.892 235.388C200.201 235.332 200.595 235.193 201.03 235.067C202.547 234.55 204.835 233.81 207.546 233.81C209.75 233.81 211.884 234.313 213.934 235.262C214.692 234.983 215.619 234.774 216.687 234.704L217.276 234.69C223.834 234.69 227.091 239.562 229.704 243.443C230.139 244.112 230.574 244.755 231.024 245.383C233.312 248.594 236.303 253.298 236.429 253.494L237.777 255.587L236.121 257.5C234.843 258.965 232.933 260.683 229.647 260.683C228.973 260.683 228.23 260.613 227.429 260.46C226.726 260.333 226.095 260.125 225.476 259.874C225.378 260.515 225.252 261.283 225.126 261.939L222.977 273.079C235.826 269.938 243.984 260.292 243.984 246.5L243.998 204.83Z" fill="#ACACAC"/>
<path d="M132.605 201.48H219.229C214.904 197.042 214.961 191.416 216.07 187.758C214.806 187.158 213.767 186.432 212.841 185.65C209.456 188.135 199.121 195.617 196.425 197.488L195.85 197.879L161.854 191.765H161.166C160.351 191.765 159.158 191.737 157.852 191.583C157.487 193.105 156.167 194.152 154.65 194.152C154.482 194.152 154.285 194.138 154.103 194.096C153.218 193.942 152.446 193.496 151.926 192.756C151.393 192.03 151.182 191.165 151.337 190.271L151.463 189.545C147.952 187.088 144.723 181.602 146.155 175.822L146.295 175.208L146.786 174.86C146.857 174.804 147.447 174.413 148.318 173.91L145.846 173.533C144.92 173.366 144.302 172.514 144.442 171.607C144.597 170.686 145.467 170.029 146.38 170.211L152.263 171.133L152.797 150.528L161.559 141.314L167.021 152.747L161.25 172.57L166.446 173.38C167.359 173.519 167.99 174.371 167.85 175.306C167.71 176.13 167.007 176.702 166.179 176.702C166.095 176.702 165.996 176.702 165.913 176.689L161.685 176.005C161.742 176.13 161.826 176.199 161.882 176.339C162.331 177.26 163.328 177.931 163.919 178.21L189.839 178.615C190.935 177.554 193.659 174.901 196.453 172.096C190.078 169.695 187.762 164.222 187.368 160.593C183.802 159.085 181.344 156.824 179.982 153.878C178.325 150.235 178.915 146.591 179.35 144.818C175.896 143.562 172.259 141.273 168.552 137.616H129.516C131.186 142.082 132.605 146.926 132.605 151.743V201.48Z" fill="#ACACAC"/>
<path d="M168.282 222.908C167.65 222.851 167.116 223.34 167.075 223.954C167.032 224.597 167.51 225.14 168.156 225.155C168.773 225.21 169.321 224.735 169.377 224.107C169.377 223.493 168.928 222.921 168.282 222.908Z" fill="black"/>
<path d="M243.841 298.441L237.424 295.998L239.192 289.409L241.145 282.22C241.145 282.22 229.771 288.349 213.749 292.955C209.199 294.254 205.759 294.84 205.759 294.84V299.725C205.759 299.725 197.193 301.205 188.529 301.205H188.431H188.305H188.136H188.038C179.374 301.205 170.809 299.725 170.809 299.725V294.84C170.809 294.84 167.354 294.254 162.819 292.955C146.797 288.349 135.437 282.22 135.437 282.22L137.361 289.409L139.172 295.998L132.741 298.441L125.607 301.094C133.794 305.016 145.126 310.74 155.503 313.559L153.06 320.205C153.06 320.205 166.217 326.165 188.136 326.221V326.235H188.207H188.305H188.389H188.446V326.221C210.393 326.165 223.536 320.205 223.536 320.205L221.078 313.559C231.456 310.74 242.816 305.016 250.96 301.094L243.841 298.441ZM133.219 301.54L143.778 298.05L140.661 287.93C145.309 290.554 155.742 294.491 161.78 296.319L156.682 310.236C147.359 307.682 139.594 304.709 133.219 301.54ZM188.305 322.731C176.047 322.731 162.046 319.925 157.932 318.474L164.195 301.624C169.39 303.131 180.203 304.737 188.052 304.681H188.066H188.305H188.516H188.544C196.393 304.737 207.177 303.131 212.401 301.624L218.649 318.474C214.535 319.939 200.549 322.731 188.305 322.731ZM219.899 310.236L214.816 296.319C220.869 294.491 231.273 290.554 235.935 287.93L232.832 298.05L243.377 301.54C236.988 304.709 229.265 307.682 219.899 310.236Z" fill="black"/>
<path d="M188.291 35.4442C201.35 35.4442 211.797 39.744 217.568 44.3367C217.568 44.3367 219.281 34.0762 225.137 25.0165L214.62 26.2029L209.115 14.5745L198.542 19.9911L188.291 9.91223L178.068 19.9911L167.481 14.5745L161.991 26.2029L151.473 25.0165C157.328 34.0762 159.042 44.3367 159.042 44.3367C164.827 39.744 175.246 35.4442 188.291 35.4442ZM161.513 30.2795L164.434 30.5867L165.697 27.9476L169.377 20.1303L176.201 23.6342L178.841 24.9749L180.948 22.9086L188.305 15.6496L195.677 22.9086L197.783 24.9749L200.423 23.6342L207.205 20.1303L210.927 27.9476L212.162 30.5867L215.083 30.2795L217.863 29.9443C216.585 32.8059 215.645 35.5138 214.971 37.7617C207.613 33.6851 198.036 31.3682 188.277 31.3682C178.56 31.3682 168.998 33.6851 161.612 37.7617C160.923 35.5138 159.997 32.7922 158.719 29.9443L161.513 30.2795Z" fill="black"/>
<path d="M341.504 171.59C358.397 171.59 364.042 154.504 364.28 153.778L366.162 147.762L359.829 147.957H359.801C357.568 147.957 338.935 147.468 325.72 130.773L324.471 129.223C315.835 118.307 307.649 107.935 293.018 103.203C293.439 102.826 294.043 102.351 294.871 101.82C302.636 96.7392 307.158 90.5691 308.295 83.4079C309.952 72.6303 303.044 64.0452 302.735 63.6964L298.03 57.9174L295.096 64.7716C294.9 65.2044 289.957 76.177 279.565 76.177H278.793C278.077 76.1343 277.403 76.1066 276.729 76.0514C277.094 71.1513 276.195 63.5708 269.287 56.4655C260.988 47.9082 250.794 46.6242 245.458 46.6242C242.607 46.6242 240.711 46.9729 240.515 47.001L233.409 48.3969L237.791 54.1343C241.232 58.5597 244.348 66.7259 240.656 70.998C239.476 72.3515 237.047 73.4543 234.716 74.5572C229.927 76.7485 223.398 79.7921 223.398 87.553C223.398 92.5788 227.316 97.8282 234.421 102.295C255.455 115.445 268.431 129.167 274.033 144.314C282.697 167.612 271.393 180.901 260.412 187.896L255.484 191.05L259.794 194.986C260.37 195.489 265.65 200.11 273.443 200.78C274.917 200.878 276.336 200.962 277.656 200.962C282.654 200.962 286.91 200.18 290.364 199.133C289.409 200.794 288.243 202.483 286.769 204.186C280.492 211.417 272.769 214.711 261.662 214.88L257.534 214.949L257.211 219.068C257.168 219.89 256.859 227.527 264.133 234.018C265.243 235.023 266.591 235.847 267.995 236.531C263.066 240.942 258.054 248.62 257.085 261.783C256.27 272.769 253.631 276.832 253.602 276.875L249.038 283.798L257.282 283.909C270.901 283.909 281.335 280.169 288.566 272.769C292.835 268.387 295.278 263.445 296.724 259.061C299.098 261.072 302.159 262.831 306.147 263.766C307.664 264.115 309.32 264.311 311.103 264.311C314.951 264.311 318.166 263.5 318.531 263.417L323.797 262.021L321.467 257.135C321.298 256.744 316.903 246.945 321.635 232.957C323.671 226.913 324.71 221.496 325.216 217.28C328.53 218.998 332.967 220.421 338.709 220.436C351.74 220.436 357.484 210.761 357.751 210.356L360.32 205.917L355.56 203.963C340.03 197.555 336.589 180.343 335.902 171.018C337.306 171.283 338.906 171.534 340.718 171.59H341.504ZM353.819 208.082C353.819 208.082 349.269 215.94 338.836 215.94H338.709C326.184 215.871 321.129 208.276 321.129 208.276C321.129 208.276 321.86 218.16 317.338 231.491C311.904 247.558 317.38 259.048 317.38 259.048C317.38 259.048 314.46 259.829 311.089 259.829C309.798 259.829 308.45 259.704 307.186 259.368C296.724 256.898 294.113 247.433 294.113 247.433C294.113 247.433 295.082 279.415 257.576 279.415H257.282C257.282 279.415 260.581 274.948 261.564 262.09C263.347 238.36 279.509 235.107 279.509 235.107C279.509 235.107 270.888 234.032 267.152 230.695C261.311 225.433 261.718 219.346 261.718 219.346C274.917 219.165 283.553 214.698 290.139 207.117C297.273 198.909 298.452 190.073 298.452 190.073C298.452 190.073 291.361 196.467 277.641 196.467C276.434 196.467 275.142 196.411 273.823 196.285C267.335 195.769 262.842 191.665 262.842 191.665C277.122 182.563 287.148 166.677 278.26 142.75C271.14 123.583 254.037 109.261 236.822 98.4694C231.093 94.9109 227.905 90.9597 227.905 87.553C227.905 79.5409 239.363 79.2897 244.067 73.9009C249.488 67.6475 246.09 57.4983 241.385 51.3984C241.385 51.3984 242.972 51.0769 245.472 51.0769C250.428 51.0769 259.008 52.3192 266.057 59.5782C275.423 69.2105 271.534 79.6941 271.534 79.6941L274.047 80.1828C275.549 80.5037 277.038 80.5596 278.583 80.6293C278.92 80.6293 279.256 80.6438 279.593 80.6438C293.2 80.6438 299.28 66.5027 299.28 66.5027C299.28 66.5027 313.744 84.1892 292.456 98.0367C288.791 100.41 287.177 102.602 287.597 104.947L287.934 106.483L289.45 106.748C304.883 110.908 312.691 121.49 322.225 133.523C336.702 151.824 357.189 152.41 359.717 152.41H359.984C359.984 152.41 355.308 167.082 341.532 167.082C341.307 167.082 341.111 167.082 340.872 167.068C334.539 166.844 331.296 164.429 331.296 164.429C331.296 164.429 328.81 197.75 353.819 208.082Z" fill="black"/>
<path d="M311.833 105.047C318.138 108.384 321.803 112.85 325.019 116.815C328.178 120.682 331.184 124.409 335.873 125.958C337.544 126.531 339.314 126.796 341.111 126.796C348.161 126.796 355.237 122.51 357.92 116.577L360.616 110.631L354.085 110.24C353.777 110.226 345.38 109.472 336.028 99.9657C332.18 96.0711 327.533 94.0186 322.519 94.0186C316.397 94.0186 311.862 97.0622 311.357 97.3686L305.346 101.571L311.833 105.047ZM322.534 98.5136C325.679 98.5136 329.344 99.5751 332.812 103.134C343.694 114.121 353.818 114.735 353.818 114.735C351.979 118.783 346.644 122.343 341.125 122.343C339.847 122.343 338.569 122.147 337.292 121.714C329.807 119.201 327.125 108.034 313.968 101.082C313.968 101.082 317.647 98.5136 322.534 98.5136Z" fill="black"/>
<path d="M314.783 164.362V164.585C310.992 134.181 288.778 112.222 264.064 98.8628C261.775 97.6481 259.669 96.6156 257.619 95.6245C265.145 96.7826 277.263 96.9227 286.615 88.854C286.615 88.854 272.306 99.3238 242.987 89.8175C251.103 95.0517 266.872 102.437 281.266 114.4C317.254 145.838 291.501 176.506 291.501 176.506C304.434 163.091 304.968 148.713 301.162 136.973C307.973 148.238 312.326 161.918 311.651 178.782C310.655 202.946 297.301 223.844 283.245 240.637C276.491 248.789 274.975 258.798 274.975 258.798C274.975 258.798 277.698 249.962 285.519 240.874C300.587 223.341 313.463 205.124 315.148 178.879C316.707 183.64 323.125 196.888 333.304 201.871C333.333 201.885 320.54 194.221 314.783 164.362Z" fill="black"/>
<path d="M122.983 276.86C122.969 276.818 120.357 272.756 119.515 261.77C118.531 248.605 113.532 240.928 108.59 236.517C110.022 235.847 111.342 235.024 112.451 234.004C119.712 227.512 119.403 219.876 119.361 219.054L119.08 214.936L114.923 214.866C103.844 214.684 96.107 211.39 89.8298 204.172C88.37 202.469 87.1903 200.78 86.2349 199.119C89.6898 200.166 93.9166 200.948 98.9292 200.948C100.277 200.948 101.667 200.864 103.142 200.766C110.935 200.096 116.215 195.489 116.805 194.973L121.116 191.036L116.187 187.882C105.164 180.874 93.9021 167.584 102.552 144.299C108.155 129.153 121.116 115.432 142.178 102.281C149.283 97.8144 153.173 92.565 153.173 87.5392C153.173 79.7783 146.657 76.7216 141.87 74.5434C139.539 73.4405 137.11 72.3376 135.929 70.9842C132.223 66.7258 135.354 58.5461 138.781 54.1206L143.189 48.3832L136.056 46.9872C135.846 46.9592 133.978 46.6105 131.113 46.6105C125.778 46.6105 115.611 47.8945 107.298 56.4518C100.376 63.5715 99.4625 71.1513 99.8143 76.0376C99.1396 76.0928 98.4663 76.1205 97.764 76.1632H97.0059C86.5867 76.1632 81.6582 65.1906 81.4616 64.7578L78.5269 57.9037L73.7799 63.6827C73.5136 64.0315 66.5769 72.631 68.2616 83.3941C69.3854 90.5553 73.9068 96.7253 81.672 101.806C82.5144 102.336 83.1042 102.812 83.5257 103.189C68.9073 107.921 60.7357 118.307 52.0992 129.223L50.8499 130.773C37.6505 147.468 18.9751 147.957 16.7425 147.957L10.3812 147.762L12.319 153.778C12.5434 154.504 18.1744 171.59 35.0807 171.59L35.8955 171.562C37.6788 171.507 39.2793 171.269 40.7122 170.991C40.0099 180.301 36.5695 197.514 21.0247 203.935L16.279 205.89L18.8488 210.328C19.1013 210.733 24.8589 220.407 37.9175 220.407C43.6179 220.393 48.0552 218.97 51.3831 217.253C51.8888 221.469 52.9278 226.884 54.9643 232.929C59.6961 246.917 55.2878 256.716 55.1188 257.107L52.7884 261.993L58.0673 263.389C58.4185 263.473 61.6623 264.282 65.4959 264.282C67.293 264.282 68.9501 264.087 70.4388 263.738C74.4401 262.803 77.5294 261.044 79.8749 259.034C81.3064 263.417 83.7644 268.359 88.0189 272.743C95.2646 280.14 105.684 283.882 119.304 283.882L127.561 283.77L122.983 276.86ZM118.995 279.415C81.4892 279.415 82.4447 247.433 82.4447 247.433C82.4447 247.433 79.8322 256.898 69.3709 259.369C68.1215 259.703 66.7873 259.829 65.4821 259.829C62.1114 259.829 59.2049 259.048 59.2049 259.048C59.2049 259.048 64.6535 247.559 59.2187 231.491C54.7256 218.16 55.4555 208.276 55.4555 208.276C55.4555 208.276 50.4145 215.871 37.8754 215.94H37.7492C27.3155 215.94 22.7658 208.081 22.7658 208.081C47.7606 197.765 45.3033 164.457 45.3033 164.457C45.3033 164.457 42.0602 166.859 35.7126 167.095C35.4884 167.11 35.2773 167.11 35.0531 167.11C21.2639 167.11 16.6019 152.438 16.6019 152.438H16.8824C19.4242 152.438 39.8836 151.852 54.3606 133.551C63.8947 121.517 71.7165 110.95 87.1207 106.776L88.6653 106.511L89.0013 104.976C89.4235 102.63 87.8223 100.438 84.1577 98.0657C62.8695 84.2037 77.3327 66.5306 77.3327 66.5306C77.3327 66.5306 83.385 80.6576 97.0204 80.6576C97.3563 80.6576 97.6654 80.6438 98.0165 80.6438C99.5474 80.5596 101.064 80.5044 102.552 80.1828L105.066 79.6941C105.066 79.6941 101.176 69.2105 110.556 59.5788C117.606 52.3055 126.185 51.0775 131.127 51.0775C133.641 51.0775 135.2 51.3983 135.2 51.3983C130.51 57.5125 127.112 67.6474 132.532 73.9016C137.221 79.2759 148.666 79.5409 148.666 87.5537C148.666 90.9459 145.478 94.9102 139.749 98.4701C122.519 109.262 105.417 123.584 98.3111 142.75C89.4373 166.677 99.4494 182.549 113.758 191.665C113.758 191.665 109.264 195.769 102.763 196.285C101.443 196.411 100.165 196.466 98.9292 196.466C85.2242 196.466 78.1337 190.073 78.1337 190.073C78.1337 190.073 79.3127 198.909 86.4039 207.118C93.0322 214.697 101.667 219.165 114.867 219.346C114.867 219.346 115.288 225.432 109.447 230.696C105.698 234.018 97.0762 235.106 97.0762 235.106C97.0762 235.106 113.252 238.359 115.021 262.09C115.991 274.948 119.262 279.415 119.262 279.415H118.995Z" fill="black"/>
<path d="M35.4601 126.81C37.2711 126.81 39.0406 126.545 40.7121 125.973C45.4295 124.423 48.4208 120.695 51.5804 116.829C54.8097 112.865 58.4467 108.397 64.7515 105.061L71.2384 101.599L65.2151 97.3976C64.7094 97.0766 60.188 94.0468 54.0798 94.0468C49.0527 94.0468 44.3912 96.0856 40.5569 99.994C31.2057 109.487 22.823 110.255 22.5133 110.268L15.9844 110.645L18.6661 116.606C21.3619 122.511 28.4248 126.81 35.4601 126.81ZM43.7731 103.149C47.2556 99.5895 50.9202 98.5281 54.0798 98.5281C58.9379 98.5281 62.6177 101.096 62.6177 101.096C49.4735 108.063 46.7775 119.216 39.2655 121.729C38.0299 122.161 36.7378 122.357 35.4601 122.357C29.9418 122.357 24.6057 118.811 22.7803 114.749C22.7803 114.735 32.8904 114.121 43.7731 103.149Z" fill="black"/>
<path d="M64.9322 178.796C64.2293 161.932 68.5831 148.252 75.4066 136.987C71.6019 148.727 72.1214 163.105 85.0683 176.52C85.0683 176.52 59.3153 145.851 95.3184 114.414C109.726 102.451 125.48 95.0655 133.582 89.8313C104.278 99.3377 89.9692 88.8679 89.9692 88.8679C99.3204 96.9366 111.439 96.7965 118.965 95.6239C116.929 96.615 114.795 97.6488 112.534 98.8628C87.7919 112.222 65.5918 134.181 61.7871 164.585V164.347C56.0432 194.207 43.2654 201.871 43.2654 201.871C53.4321 196.887 59.8348 183.654 61.3939 178.879C63.0924 205.124 75.9688 223.34 91.0357 240.874C98.8568 249.962 101.609 258.798 101.609 258.798C101.609 258.798 100.079 248.79 93.2964 240.637C79.2685 223.871 65.9146 202.96 64.9322 178.796Z" fill="black"/>
<path d="M179.826 117.276V123.306C181.919 120.779 185.963 121.296 185.963 121.296V129.993C185.963 129.993 185.822 134.264 184.292 136.121H188.672H193.04C191.537 134.278 191.383 129.993 191.383 129.993V121.296C191.383 121.296 195.427 120.779 197.505 123.306V117.276H188.672H179.826Z" fill="black"/>
<path d="M176.061 81.5107C178.855 83.7164 180.47 84.0795 180.525 84.1209L181.621 84.6233V78.9419L171.342 74.6422C171.342 74.6566 171.441 77.937 176.061 81.5107Z" fill="black"/>
<path d="M200.513 81.5107C205.162 77.937 205.245 74.6422 205.245 74.6422L194.967 78.9419V84.6233L196.048 84.1209C196.119 84.0795 197.719 83.7164 200.513 81.5107Z" fill="black"/>
<path d="M219.028 58.3796C219.028 49.767 204.438 42.0193 188.332 42.0193H188.318H188.276H188.233C172.128 42.0193 157.539 49.767 157.539 58.3796L157.862 60.5019L164.292 97.2016L157.833 100.928L141.123 110.631H141.179C141.179 110.631 137.417 112.543 135.675 113.73C129.314 118.127 127.966 124.534 131.66 127.187C132.572 121.965 136.728 116.494 144.508 116.494C150.11 116.494 154.379 119.37 157.833 123.683C158.718 124.772 159.56 125.93 160.347 127.187C161.316 128.764 162.285 130.146 163.254 131.486H120.215C123.375 137.81 126.379 144.51 126.379 151.784V246.485C126.379 269.407 144.115 280.352 163.296 280.352C178.124 280.352 180.118 279.682 188.304 287.778C196.448 279.668 198.442 280.352 213.284 280.352C232.48 280.352 250.186 269.407 250.186 246.485V151.784C250.186 144.51 253.192 137.81 256.365 131.486H213.313C214.268 130.16 215.236 128.764 216.206 127.187C217.005 125.93 217.834 124.772 218.705 123.683C222.188 119.355 226.441 116.494 232.045 116.494C239.824 116.494 243.966 121.952 244.893 127.187C248.586 124.534 247.252 118.127 240.849 113.73C239.136 112.543 235.373 110.631 235.373 110.631H235.428L218.719 100.928L212.288 97.2016L218.719 60.5019L219.028 58.3796ZM163.871 62.6514L186.479 70.2734V105.577L169.839 96.853L163.871 62.6514ZM168.547 137.643C172.254 141.314 175.892 143.59 179.346 144.846C178.896 146.618 178.306 150.276 179.977 153.919C181.34 156.851 183.811 159.112 187.364 160.62C187.757 164.25 190.06 169.708 196.448 172.123C193.654 174.929 190.929 177.567 189.821 178.642L163.913 178.237C163.324 177.943 162.327 177.288 161.877 176.353C161.821 176.227 161.737 176.157 161.695 176.017L165.922 176.701C166.02 176.716 166.104 176.716 166.189 176.716C167.003 176.716 167.719 176.157 167.859 175.32C168 174.384 167.368 173.533 166.455 173.393L161.26 172.584L167.031 152.775L161.568 141.342L152.806 150.555L152.273 171.16L146.389 170.238C145.476 170.057 144.606 170.727 144.452 171.635C144.311 172.541 144.929 173.393 145.856 173.561L148.327 173.938C147.443 174.44 146.867 174.831 146.796 174.887L146.291 175.236L146.15 175.85C144.718 181.629 147.962 187.116 151.458 189.572L151.331 190.299C151.192 191.191 151.388 192.057 151.921 192.783C152.427 193.523 153.213 193.97 154.084 194.123C154.267 194.151 154.463 194.165 154.632 194.165C156.148 194.165 157.469 193.118 157.847 191.597C159.153 191.749 160.347 191.778 161.161 191.778H161.849L195.845 197.878L196.42 197.501C199.131 195.616 209.451 188.134 212.835 185.664C213.762 186.459 214.801 187.185 216.065 187.786C214.969 191.443 214.899 197.069 219.238 201.508H132.6V151.797C132.6 146.981 131.182 142.138 129.511 137.671H168.547V137.643ZM210.561 183.122C207.12 185.635 198.274 192.057 195.072 194.291L164.18 188.777C164.251 188.497 164.32 188.232 164.391 187.953C164.798 186.362 165.205 184.184 165.234 181.629L191.196 182.048L191.688 181.545C192.082 181.155 200.31 173.254 204.508 168.702C205.505 169.945 206.755 171.132 208.385 172.178C207.822 175.194 208.061 179.493 210.561 183.122ZM158.844 177.805C159.575 179.326 160.894 180.345 161.807 180.917C161.78 182.341 161.639 184.561 161.26 186.515C161.175 186.948 161.063 187.353 160.936 187.758C160.866 188.009 160.796 188.219 160.74 188.386C159.378 188.386 156.696 188.219 154.505 187.423C152.076 186.529 148.453 182.104 149.296 177.232C150.349 176.59 152.778 175.236 155.053 175.236C156.808 175.222 158.002 176.045 158.844 177.805ZM155.629 171.676L156.148 151.895L160.614 147.191L163.422 153.026L157.889 172.011L155.629 171.676ZM210.28 274.224C208.594 274.224 207.037 274.252 205.631 274.307L209.31 262.93C209.886 261.353 206.979 259.328 205.787 257.555C207.597 258.687 212.288 261.157 214.549 262.148C214.309 262.511 210.28 274.224 210.28 274.224ZM221.822 261.297L219.421 273.749C217.89 273.958 216.262 274.07 214.591 274.139L217.118 262.162C217.877 258.602 208.258 257.499 203.511 250.506C201.195 253.102 196.828 253.87 192.446 253.87C188.445 253.87 184.443 253.228 182.013 252.753C181.395 252.656 180.806 252.586 180.23 252.586C178.826 252.586 177.548 253.019 176.664 254.499L175.961 255.671L162.861 252.599L159.602 257.961C159.139 258.826 159.111 259.566 159.855 260.375L160.74 261.338C160.136 263.237 157.413 266.099 157.413 266.099L155.46 263.684C153.916 261.966 154.168 258.84 155.783 255.936L160.979 247.212L172.072 248.803L170.344 244.894C168.028 239.729 171.552 233.154 171.931 229.371C171.805 230.515 170.752 230.767 169.516 230.767C168.393 230.767 167.143 230.558 166.315 230.558C165.992 230.558 165.71 230.586 165.557 230.697L162.551 232.512L160.178 230.433C159.898 230.027 159.799 229.092 160.501 228.394L165.992 222.28L159.504 214.755L168.589 219.293L171.356 215.956C172.114 216.696 171.791 218.636 171.791 218.636C174.627 218.706 182.575 223.075 182.997 233.266C183.025 233.573 183.025 233.922 183.025 234.257C183.025 234.257 183.095 234.382 183.235 234.592C183.797 235.36 185.341 237.328 187.307 237.51L199.861 238.739H199.916C201.293 238.739 204.031 237.133 207.542 237.133C209.451 237.133 211.586 237.621 213.86 239.045C213.86 239.045 214.998 238.152 216.851 238.053C216.992 238.04 217.146 238.04 217.287 238.04C222.918 238.04 225.249 243.094 228.268 247.295C230.542 250.492 233.575 255.239 233.575 255.239C232.452 256.564 231.413 257.29 229.671 257.29C229.194 257.29 228.646 257.248 228.056 257.137C222.019 256.034 221.148 243.693 217.708 242.717C217.525 242.661 217.329 242.647 217.161 242.647C216.051 242.647 215.559 243.624 215.559 243.624C217.132 247.826 216.22 249.529 217.904 252.768C219.169 255.168 221.415 257.151 222.341 258.086C222.341 258.114 222.089 259.929 221.822 261.297ZM154.407 249.515L154.982 250.953C154.603 252.209 150.25 253.996 150.25 253.996L149.31 251.958C148.312 249.781 148.524 246.108 151.557 243.861L158.605 239.59L166.076 241.167C165.935 243.526 167.354 245.286 167.354 245.286L159.518 243.791L154.828 247.016C154.042 247.56 153.986 248.58 154.407 249.515ZM223.002 273.065L225.15 261.925C225.262 261.269 225.402 260.501 225.501 259.859C226.105 260.11 226.75 260.32 227.453 260.445C228.253 260.598 228.997 260.669 229.671 260.669C232.957 260.669 234.867 258.952 236.144 257.486L237.802 255.573L236.454 253.479C236.327 253.27 233.35 248.58 231.048 245.368C230.599 244.74 230.163 244.112 229.727 243.428C227.116 239.548 223.844 234.676 217.287 234.676L216.697 234.69C215.616 234.759 214.689 234.969 213.944 235.248C211.88 234.285 209.76 233.796 207.556 233.796C204.846 233.796 202.557 234.536 201.04 235.053C200.605 235.179 200.212 235.318 199.903 235.373L187.644 234.173C187.49 234.145 186.984 233.852 186.38 233.126V233.07L189.034 232.01C188.291 223.229 179.809 217.827 175.076 215.998C174.866 215.118 174.445 214.239 173.701 213.527L171.06 211.042L168.744 213.806L167.607 215.216L150.447 208.209L161.61 222.14L157.202 228.771C155.587 230.474 157.37 232.177 157.37 232.177L161.919 235.29L166.638 233.545C166.806 233.545 166.947 233.587 167.101 233.601C166.876 234.313 166.582 237.105 166.385 237.886L158.198 236.281L149.59 241.111C145.167 244.336 144.564 249.682 146.206 253.34L147.161 255.419L148.524 258.351L151.528 257.109C151.571 257.094 151.613 257.081 151.64 257.053C150.559 260.487 150.995 263.754 152.933 265.903L154.758 268.193L157.187 271.25L159.855 268.402C160.641 267.621 163.183 264.786 163.969 262.358L164.546 260.501L163.239 259.077L163.029 258.826L164.489 256.425L175.175 258.923L177.576 259.468L178.854 257.374L179.556 256.229C179.682 255.992 179.725 255.95 180.216 255.95C180.595 255.95 180.975 255.992 181.382 256.076C185.411 256.83 189.132 257.207 192.433 257.207C195.634 257.207 197.543 257.081 199.833 256.328C199.833 256.328 205.575 262.804 205.772 263.056L202.262 273.832L202.107 274.489C195.452 275.019 192.208 276.471 188.291 280.366C182.603 274.754 178.573 274.168 163.281 274.168C144.985 274.168 132.585 263.503 132.585 246.472V204.83H243.966L243.995 246.472C244.008 260.291 235.85 269.924 223.002 273.065ZM247.084 137.643C245.384 142.11 243.966 146.954 243.966 151.77L243.98 182.844C237.451 181.754 236.678 174.761 236.65 174.454L236.524 173.03L235.12 172.904C232.283 172.639 230.402 171.439 228.815 169.903C225.614 166.72 225.599 161.555 225.614 161.514C225.571 161.778 222.089 166.623 226.133 171.913C227.832 174.147 230.289 175.515 233.477 176.06C234.221 179.94 237.128 185.412 243.98 186.25V201.466H224.715C215.826 196.552 219.59 187.897 219.772 187.535L220.53 185.887L218.831 185.245C209.212 181.699 211.853 172.151 211.993 171.746L212.386 170.35L211.081 169.736C203.132 166.079 204.214 156.209 204.312 155.804C201.869 157.773 200.984 161.793 202.669 165.73C201.756 166.763 200.535 168.018 199.201 169.387C190.972 167.307 190.72 159.782 190.72 159.434L190.705 158.275L189.624 157.856C186.409 156.669 184.204 154.897 183.123 152.509C181.901 149.871 182.336 147.107 182.673 145.781C183.614 145.99 184.555 146.144 185.454 146.214C186.38 146.311 187.335 146.367 188.291 146.367H188.347H188.417C189.372 146.367 190.312 146.311 191.239 146.214C196.364 145.711 202.107 143.519 208.089 137.628H247.084V137.643ZM217.062 106.233L224.673 110.631H224.785L226.695 111.734C222.397 112.92 219.112 115.056 216.36 117.862C216.262 117.946 216.163 118.057 216.065 118.155C215.433 118.825 214.801 119.551 214.211 120.29C214.1 120.43 213.986 120.584 213.86 120.738C213.27 121.491 212.723 122.259 212.189 123.069C212.105 123.208 212.006 123.348 211.909 123.473C211.277 124.409 210.673 125.414 210.069 126.447C204.649 135.73 195.999 141.272 188.304 141.286C180.623 141.272 171.974 135.73 166.553 126.447C165.963 125.442 165.374 124.465 164.742 123.515C164.615 123.334 164.503 123.152 164.391 122.999C163.857 122.231 163.324 121.477 162.776 120.765C162.636 120.57 162.509 120.417 162.369 120.249C161.78 119.537 161.175 118.825 160.571 118.169C160.445 118.071 160.361 117.946 160.235 117.833C157.469 115.028 154.196 112.906 149.885 111.734L151.823 110.631H151.907L159.518 106.233L167.34 101.781L188.233 113.087L188.276 113.046L188.332 113.087L209.226 101.781L217.062 106.233ZM206.755 96.8661L190.101 105.591V70.2734L212.694 62.6514L206.755 96.8661ZM188.291 66.3929L163.52 56.6628C165.627 51.707 175.343 47.4912 188.291 47.4775C201.251 47.4912 210.968 51.707 213.06 56.6628L188.291 66.3929Z" fill="black"/>
</g>
<defs>
<clipPath id="clip0_163_777">
<rect width="376" height="334" fill="white"/>
</clipPath>
</defs>
</svg>
