<svg width="376" height="334" fill="none" xmlns="http://www.w3.org/2000/svg"><g clip-path="url(#clip0_163_777)"><path d="m371.06 155.902 4.872-15.51-16.12.503c-1.362 0-11.262-.28-20.866-7.204.716.07 1.432.168 2.162.168 9.885 0 19.448-5.92 23.281-14.378l6.937-15.286c-8.692.111-16.639-.978-16.639-.978-.07-.013-6.333-.809-13.579-8.166-5.195-5.2763-11.626-8.068-18.591-8.068-3.048 0-5.771.5438-8.117 1.2837.365-1.2423.716-2.4984.913-3.7966 2.219-14.3085-7.048-25.2249-7.048-25.2113l-12.119-14.9227-7.512 17.5331c-.028.0559-1.925 4.1598-5.322 6.1701-1.025-5.151-3.539-10.9444-8.917-16.4858-10.138-10.4421-22.481-11.9916-28.94-11.9916-2.991 0-5.125.3208-5.645.4048l-14.632 2.8615c.843-3.2527 2.64-8.9061 5.926-14.0012l8.075-12.5076-20.32 2.3031-6.473-13.6667-12.525 6.4214L188.276 0 176.72 11.3772l-12.568-6.4214-6.459 13.6667-20.305-2.3031 8.088 12.5076c3.286 5.0951 5.083 10.7349 5.912 13.9876l-13.957-2.736-.478-.084c-.702-.1119-2.822-.4327-5.827-.4327-6.459 0-18.802 1.5631-28.913 11.9916-5.392 5.5278-7.9053 11.3348-8.9442 16.4858-3.37-1.9823-5.252-6.0302-5.252-6.0302L80.491 44.3777 68.1753 59.3981c-1.5018 1.9407-8.9297 12.2011-6.9084 25.0996.2111 1.2844.5485 2.5412.9134 3.7835-2.3311-.7399-5.0554-1.2851-8.1025-1.2851-6.9643 0-13.396 2.7924-18.6053 8.0687-7.2181 7.3292-13.4525 8.1522-13.3959 8.1522 0 0-6.5862 1.173-16.7806.992l6.895 15.286c3.8332 8.473 13.4101 14.378 23.2815 14.378.7437 0 1.4598-.097 2.1904-.168-9.5768 6.925-19.4758 7.204-20.6695 7.217l-16.4294-.53 4.9708 15.496c2.4995 7.984 10.8545 21.218 26.8623 22.642-1.7412 7.259-5.6025 15.384-14.0837 18.887L6.083 202.428l6.6697 11.545c3.7629 6.226 12.5959 13.513 25.1772 13.513 2.7236-.014 5.3493-.279 7.8776-.809.6458 2.847 1.4598 5.695 2.4146 8.515 3.7495 11.084.5195 18.817.4781 18.902l-6.0385 12.576 13.4802 3.532c.1683.057 4.2406 1.16 9.3374 1.16 2.3173 0 4.5221-.238 6.6007-.727 1.5722-.363 3.0748-.851 4.5208-1.437 1.7412 3.112 3.8619 5.946 6.3337 8.487 8.6351 8.808 20.8655 13.276 36.3685 13.276h.055l11.066-.14-22.86 9.436 17.356 8.334c6.304 3.058 13.789 6.673 21.399 9.437l-2.162 5.891 5.982 2.709c.533.237 12.033 5.36 31.158 6.449 0 0 4.62.209 7.162.209 2.541 0 7.105-.224 7.105-.224 18.998-1.116 30.414-6.184 30.948-6.434l5.996-2.723-2.19-5.905c7.835-2.847 15.586-6.602 21.624-9.535l17.033-8.221-22.79-9.451 11.108.14c15.515 0 27.76-4.467 36.381-13.29 2.458-2.526 4.578-5.361 6.333-8.473 1.447.586 2.963 1.075 4.536 1.437 2.064.489 4.269.726 6.586.726 5.013 0 9.127-1.103 9.239-1.131l13.536-3.559-5.897-12.34c-.14-.322-3.37-8.041.379-19.139a88.0886 88.0886 0 0 0 2.402-8.516c2.541.531 5.195.81 7.933.81 16.022 0 23.703-11.209 25.192-13.638l6.599-11.419-12.23-4.998c-8.496-3.504-12.343-11.642-14.07-18.887 15.783-1.34 24.264-14.574 26.848-22.614ZM152.456 48.1608l-.169.0423.14-.1816.029.1393Z" fill="white"/><path d="M188.292 47.4767c-12.948.0136-22.651 4.2295-24.771 9.1853l24.771 9.7158 24.77-9.7158c-2.106-4.9558-11.809-9.1717-24.77-9.1853ZM188.544 304.683h-.491c-7.85.056-18.648-1.55-23.858-3.058l-6.262 16.849c4.128 1.466 18.114 4.259 30.372 4.259 12.23 0 26.231-2.807 30.345-4.259l-6.248-16.849c-5.225 1.521-16.009 3.114-23.858 3.058ZM235.937 287.932c-4.662 2.624-15.067 6.561-21.119 8.39l5.083 13.917c9.366-2.54 17.089-5.513 23.477-8.697l-10.545-3.49 3.104-10.12ZM140.663 287.932l3.118 10.12-10.56 3.49c6.375 3.184 14.14 6.157 23.464 8.697l5.083-13.917c-6.023-1.829-16.443-5.779-21.105-8.39ZM188.292 31.3672c9.759 0 19.336 2.3175 26.694 6.3941.674-2.2479 1.614-4.9702 2.893-7.8173l-2.78.3344-2.921.3072-1.236-2.6384-3.72-7.8173-6.783 3.5182-2.64 1.3401-2.107-2.0663-7.372-7.2591-7.357 7.2591-2.107 2.0663-2.64-1.3401-6.824-3.5182-3.679 7.8173-1.264 2.6384-2.921-.3072-2.78-.3344c1.279 2.8615 2.205 5.5694 2.893 7.8173 7.372-4.0766 16.92-6.3941 26.651-6.3941ZM337.292 121.716c1.263.432 2.555.628 3.833.628 5.519 0 10.854-3.546 12.694-7.609 0 0-10.125-.614-21.007-11.6-3.468-3.5599-7.133-4.6207-10.279-4.6207-4.886 0-8.551 2.5677-8.551 2.5677 13.143 6.953 15.825 18.121 23.31 20.634ZM35.4629 122.344c1.2777 0 2.5698-.196 3.8053-.628 7.5128-2.513 10.2088-13.681 23.3516-20.634 0 0-3.6791-2.5677-8.5379-2.5677-3.1589 0-6.8242 1.0608-10.306 4.6207-10.869 10.986-20.9929 11.6-20.9929 11.6 1.8109 4.063 7.1609 7.609 12.6799 7.609Z" fill="white"/><path d="M340.858 167.097c.226.013.423.013.661.013 13.775 0 18.451-14.671 18.451-14.671h-.267c-2.528 0-23.015-.587-37.492-18.888-9.535-12.033-17.341-22.614-32.774-26.774l-1.516-.266-.337-1.535c-.421-2.346 1.193-4.537 4.858-6.9096 21.288-13.862 6.839-31.5353 6.839-31.5353s-6.08 14.141-19.688 14.141c-.322 0-.673-.0138-1.01-.0138-1.545-.0835-3.034-.1394-4.535-.4603l-2.514-.4887s3.876-10.4836-5.477-20.1163c-7.049-7.2726-15.628-8.5013-20.585-8.5013-2.499 0-4.086.3215-4.086.3215 4.704 6.1142 8.102 16.249 2.668 22.5022-4.69 5.375-16.148 5.64-16.148 13.6529 0 3.3921 3.187 7.3571 8.917 10.9163 17.229 10.7904 34.332 25.1004 41.437 44.2794 8.889 23.928-1.123 39.799-15.418 48.901 0 0 4.48 4.104 10.981 4.621 1.32.126 2.611.181 3.819.181 13.719 0 20.81-6.393 20.81-6.393s-1.165 8.836-8.312 17.045c-6.586 7.579-15.236 12.033-28.421 12.228 0 0-.422 6.087 5.419 11.349 3.736 3.323 12.372 4.412 12.372 4.412s-16.162 3.252-17.946 26.984c-.969 12.856-4.269 17.323-4.269 17.323h.295c37.506 0 36.537-31.981 36.537-31.981s2.612 9.464 13.074 11.935c1.263.336 2.611.461 3.903.461 3.37 0 6.291-.782 6.291-.782s-5.477-11.488-.043-27.556c4.508-13.331 3.777-23.215 3.777-23.215s5.056 7.594 17.582 7.664h.126c10.433 0 14.982-7.859 14.982-7.859-25.008-10.316-22.537-43.624-22.537-43.624s3.244 2.401 9.576 2.639Zm-7.526 34.786c-10.166-4.983-16.597-18.217-18.156-22.991-1.684 26.244-14.575 44.462-29.642 61.995-7.821 9.088-10.546 17.924-10.546 17.924s1.503-10.009 8.271-18.162c14.057-16.793 27.409-37.691 28.407-61.855.687-16.863-3.679-30.543-10.49-41.808 3.805 11.739 3.272 26.118-9.66 39.533 0 0 25.738-30.669-10.25-62.106-14.408-11.964-30.163-19.3482-38.279-24.5838 29.319 9.5071 43.628-.9627 43.628-.9627-9.366 8.0687-21.484 7.9293-28.996 6.7705 2.036.9917 4.156 2.0242 6.445 3.2389 24.713 13.3451 46.928 35.3031 50.719 65.7221v-.238c5.757 29.86 18.549 37.523 18.549 37.523ZM97.077 235.108s8.635-1.076 12.371-4.412c5.826-5.262 5.42-11.349 5.42-11.349-13.2-.181-21.8351-4.649-28.4634-12.214-7.0905-8.209-8.2702-17.045-8.2702-17.045s7.0905 6.393 20.7956 6.393c1.236 0 2.514-.056 3.834-.181 6.501-.516 10.994-4.621 10.994-4.621-14.2941-9.101-24.32-24.987-15.4455-48.915 7.1195-19.166 24.2085-33.489 41.4375-44.2794 5.729-3.5592 8.916-7.5104 8.916-10.9163 0-8.0129-11.443-8.2779-16.133-13.6529-5.435-6.2532-2.023-16.4024 2.667-22.5022 0 0-1.558-.3215-4.072-.3215-4.943 0-13.522 1.2287-20.571 8.5013-9.38 9.6327-5.491 20.1163-5.491 20.1163l-2.513.4887c-1.502.3209-3.0049.3768-4.5357.4603-.3505 0-.6603.0138-.9969.0138-13.6347 0-19.687-14.1266-19.687-14.1266s-14.4494 17.672 6.825 31.534c3.6646 2.3735 5.2651 4.5655 4.8443 6.9105l-.3374 1.536-1.5446.265c-15.4035 4.159-23.2246 14.742-32.7594 26.775-14.4494 18.273-34.9083 18.873-37.4637 18.873h-.2813s4.6759 14.671 18.4513 14.671c.2242 0 .4209 0 .6595-.013 6.3338-.225 9.5914-2.639 9.5914-2.639s2.4428 33.294-22.5375 43.624c0 0 4.5497 7.859 14.9827 7.859h.1262c12.5392-.07 17.5808-7.664 17.5808-7.664s-.7306 9.884 3.7625 23.215c5.4348 16.068-.0131 27.556-.0131 27.556s2.9203.782 6.2765.782c1.3052 0 2.6401-.125 3.8895-.461 10.4468-2.471 13.0731-11.935 13.0731-11.935s-.9555 31.981 36.5508 31.981h.267s-3.286-4.467-4.241-17.323c-1.797-23.732-17.959-26.984-17.959-26.984Zm-6.024 5.779c-15.0676-17.533-27.9434-35.751-29.6432-61.995-1.5578 4.76-7.9619 18.008-18.1272 22.991 0 0 12.7779-7.663 18.5204-37.523v.238c3.806-30.404 26.0062-52.377 50.734-65.7221 2.261-1.2291 4.408-2.2616 6.431-3.2389-7.513 1.1588-19.6303 1.2982-28.9961-6.7705 0 0 14.3091 10.4698 43.6131.9627-8.116 5.2356-23.856 12.6198-38.2638 24.5838-36.0031 31.437-10.2501 62.106-10.2501 62.106-12.9469-13.429-13.4664-27.794-9.661-39.533-6.8243 11.278-11.1781 24.945-10.4751 41.808.9824 24.164 14.3363 45.062 28.3649 61.855 6.7811 8.139 8.3121 18.162 8.3121 18.162s-2.7524-8.836-10.559-17.924ZM160.561 118.182c.618.656 1.221 1.368 1.797 2.08.141.168.267.321.407.516.534.713 1.082 1.466 1.601 2.234.112.154.225.335.351.517.632.949 1.222 1.926 1.812 2.931 5.406 9.284 14.07 14.825 21.751 14.84 7.695-.015 16.33-5.556 21.764-14.84.604-1.033 1.208-2.038 1.84-2.973.098-.14.196-.265.28-.406.534-.795 1.096-1.577 1.686-2.33.126-.168.239-.307.35-.447.605-.74 1.222-1.466 1.854-2.136.113-.112.197-.209.295-.293 2.752-2.806 6.039-4.942 10.335-6.128l-1.909-1.103h-.113l-7.61-4.398-7.822-4.453-20.894 11.307-.056-.041-.042.041-20.909-11.307-7.807 4.439-7.625 4.398h-.084l-1.939 1.102c4.311 1.187 7.583 3.295 10.35 6.101.126.112.21.238.337.349Zm19.266-.908h17.678v6.031c-2.078-2.527-6.122-2.01-6.122-2.01v8.697s.154 4.272 1.657 6.129H184.291c1.531-1.844 1.671-6.129 1.671-6.129v-8.697s-4.029-.517-6.135 2.01v-6.031Z" fill="white"/><path d="M186.482 105.576V70.2727l-22.608-7.6225 5.968 34.216 16.64 8.7098Zm-4.859-26.6341v5.6669l-1.095-.5024c-.056-.0414-1.658-.4052-4.465-2.6102-4.635-3.5737-4.718-6.8679-4.718-6.8679l10.278 4.3136ZM206.759 96.8662l5.941-34.216-22.594 7.6225v35.3033l16.653-8.7098Zm-11.794-17.9243 10.278-4.2998s-.084 3.2942-4.732 6.8679c-2.795 2.2057-4.41 2.5681-4.465 2.6109l-1.096.5024v-5.6814h.015ZM154.508 187.422c2.204.796 4.873.964 6.235.964.056-.168.127-.377.197-.628.126-.406.238-.796.323-1.243.379-1.954.519-4.174.547-5.598-.927-.573-2.233-1.591-2.963-3.113-.842-1.759-2.036-2.568-3.792-2.568-2.274 0-4.717 1.354-5.756 1.996-.829 4.872 2.78 9.297 5.209 10.19ZM204.514 168.687c-4.198 4.536-12.412 12.438-12.82 12.843l-.491.502-25.964-.405c-.014 2.556-.435 4.733-.843 6.324-.069.266-.14.545-.21.824l30.892 5.514c3.216-2.234 12.062-8.656 15.488-11.168-2.499-3.63-2.737-7.929-2.176-10.958-1.629-1.047-2.879-2.219-3.876-3.476Z" fill="white"/><path d="M208.033 137.643c-5.981 5.906-11.725 8.083-16.85 8.586-.926.097-1.867.153-2.822.153h-.127c-.955 0-1.909-.056-2.836-.153-.899-.084-1.839-.224-2.781-.433-.337 1.327-.758 4.105.451 6.729 1.081 2.387 3.285 4.159 6.5 5.332l1.081.419.015 1.159c0 .349.252 7.858 8.495 9.939 1.348-1.382 2.57-2.624 3.469-3.657-1.686-3.937-.801-7.958 1.642-9.925-.112.418-1.179 10.274 6.769 13.931l1.305.615-.393 1.381c-.126.419-2.78 9.953 6.838 13.499l1.7.642-.759 1.648c-.168.363-3.945 9.017 4.943 13.931h19.279v-15.216c-6.851-.837-9.758-6.31-10.502-10.191-3.189-.544-5.659-1.911-7.345-4.146-4.044-5.29-.561-10.134-.519-10.4-.015.043 0 5.208 3.201 8.391 1.587 1.535 3.469 2.721 6.319 2.987l1.404.125.127 1.424c.028.307.8 7.288 7.33 8.39l-.015-31.073c0-4.817 1.419-9.661 3.118-14.128h-39.037v.041ZM156.152 151.879l-.519 19.794 2.26.336 5.533-18.985-2.809-5.836-4.465 4.691ZM217.148 242.661c.169 0 .366.028.549.07 3.439.977 4.311 13.316 10.348 14.42.59.126 1.137.153 1.615.153 1.741 0 2.78-.74 3.904-2.052 0 0-3.034-4.746-5.308-7.943-3.02-4.188-5.364-9.255-10.982-9.255-.126 0-.294 0-.434.014-1.854.098-2.991.992-2.991.992-2.275-1.425-4.396-1.913-6.319-1.913-3.525 0-6.263 1.605-7.625 1.605h-.056l-12.554-1.229c-1.965-.181-3.51-2.149-4.071-2.917-.141-.21-.212-.335-.212-.335 0-.335 0-.684-.027-.991-.422-10.205-8.369-14.574-11.192-14.644 0 0 .337-1.94-.435-2.68l-2.766 3.336-9.086-4.537 6.473 7.525-5.49 6.128c-.687.698-.603 1.647-.322 2.038l2.373 2.08 3.004-1.815c.155-.111.422-.14.758-.14.829 0 2.079.21 3.202.21 1.222 0 2.289-.266 2.416-1.41-.379 3.783-3.904 10.358-1.587 15.523l1.713 3.895-11.093-1.592-5.195 8.725c-1.601 2.904-1.855 6.045-.31 7.748l1.938 2.415s2.725-2.876 3.342-4.76l-.884-.963c-.745-.811-.703-1.536-.253-2.415l3.257-5.375 13.102 3.071.687-1.172c.885-1.467 2.163-1.913 3.568-1.913.575 0 1.165.07 1.782.168 2.43.474 6.432 1.116 10.434 1.116 4.395 0 8.748-.782 11.065-3.364 4.745 6.994 14.364 8.111 13.606 11.657l-2.527 11.977c1.671-.07 3.285-.182 4.816-.391l2.401-12.466c.267-1.354.52-3.183.52-3.183-.926-.935-3.173-2.917-4.438-5.319-1.698-3.238-.772-4.928-2.358-9.143.056.028.533-.949 1.642-.949Zm-49.006-17.506c-.645-.014-1.109-.558-1.081-1.2.057-.615.576-1.103 1.208-1.047.646.028 1.109.586 1.081 1.201-.056.613-.59 1.089-1.208 1.046Z" fill="white"/><path d="M150.256 253.994s4.339-1.773 4.732-3.043l-.575-1.438c-.408-.935-.351-1.954.435-2.513l4.69-3.224 7.836 1.493s-1.419-1.758-1.278-4.118l-7.471-1.577-7.049 4.271c-3.019 2.248-3.244 5.919-2.247 8.097l.927 2.052ZM205.637 274.291c1.404-.055 2.948-.083 4.648-.083 0 0 4.03-11.712 4.255-12.089-2.261-.991-6.951-3.462-8.762-4.593 1.194 1.773 4.1 3.812 3.524 5.375l-3.665 11.39Z" fill="white"/><path d="M243.998 204.83H132.603v41.656c0 17.03 12.399 27.696 30.696 27.696 15.292 0 19.322.586 25.009 6.198 3.917-3.881 7.162-5.332 13.817-5.878l.155-.641 3.51-10.791c-.197-.238-5.939-6.729-5.939-6.729-2.275.754-4.185.88-7.4.88-3.301 0-7.022-.377-11.051-1.131-.408-.097-.787-.125-1.166-.125-.492 0-.534.042-.661.279l-.702 1.144-1.278 2.094-2.4-.544-10.686-2.499-1.46 2.401.224.251 1.306 1.424-.575 1.857c-.787 2.429-3.343 5.263-4.115 6.045l-2.668 2.847-2.429-3.057-1.826-2.275c-1.923-2.136-2.373-5.417-1.291-8.851-.029.029-.071.042-.113.042l-3.018 1.243-1.363-2.931-.955-2.081c-1.643-3.657-1.039-9.004 3.384-12.229l8.608-4.83 8.187 1.606c.197-.782.491-3.574.729-4.286-.154-.013-.308-.056-.463-.056l-4.718 1.745-4.549-3.127s-1.783-1.702-.169-3.406l4.409-6.631-11.163-13.931 17.159 7.008 1.138-1.41 2.317-2.75 2.625 2.484c.745.712 1.166 1.591 1.376 2.471 4.732 1.829 13.2 7.231 13.944 16.012l-2.654 1.061v.07c.604.711 1.109 1.005 1.264 1.032l12.244 1.201c.309-.056.703-.195 1.138-.321 1.517-.517 3.805-1.257 6.516-1.257 2.204 0 4.338.503 6.388 1.452.758-.279 1.685-.488 2.753-.558l.589-.014c6.558 0 9.815 4.872 12.428 8.753.435.669.87 1.312 1.32 1.94 2.288 3.211 5.279 7.915 5.405 8.111l1.348 2.093-1.656 1.913c-1.278 1.465-3.188 3.183-6.474 3.183-.674 0-1.417-.07-2.218-.223-.703-.127-1.334-.335-1.953-.586-.098.641-.224 1.409-.35 2.065l-2.149 11.14c12.849-3.141 21.007-12.787 21.007-26.579l.014-41.67ZM132.605 201.48h86.624c-4.325-4.438-4.268-10.064-3.159-13.722-1.264-.6-2.303-1.326-3.229-2.108-3.385 2.485-13.72 9.967-16.416 11.838l-.575.391-33.996-6.114h-.688c-.815 0-2.008-.028-3.314-.182-.365 1.522-1.685 2.569-3.202 2.569-.168 0-.365-.014-.547-.056-.885-.154-1.657-.6-2.177-1.34-.533-.726-.744-1.591-.589-2.485l.126-.726c-3.511-2.457-6.74-7.943-5.308-13.723l.14-.614.491-.348c.071-.056.661-.447 1.532-.95l-2.472-.377c-.926-.167-1.544-1.019-1.404-1.926.155-.921 1.025-1.578 1.938-1.396l5.883.922.534-20.605 8.762-9.214 5.462 11.433-5.771 19.823 5.196.81c.913.139 1.544.991 1.404 1.926-.14.824-.843 1.396-1.671 1.396-.084 0-.183 0-.266-.013l-4.228-.684c.057.125.141.194.197.334.449.921 1.446 1.592 2.037 1.871l25.92.405c1.096-1.061 3.82-3.714 6.614-6.519-6.375-2.401-8.691-7.874-9.085-11.503-3.566-1.508-6.024-3.769-7.386-6.715-1.657-3.643-1.067-7.287-.632-9.06-3.454-1.256-7.091-3.545-10.798-7.202h-39.036c1.67 4.466 3.089 9.31 3.089 14.127v49.737Z" fill="#ACACAC"/><path d="M168.282 222.908c-.632-.057-1.166.432-1.207 1.046-.043.643.435 1.186 1.081 1.201.617.055 1.165-.42 1.221-1.048 0-.614-.449-1.186-1.095-1.199ZM243.841 298.441l-6.417-2.443 1.768-6.589 1.953-7.189s-11.374 6.129-27.396 10.735c-4.55 1.299-7.99 1.885-7.99 1.885v4.885s-8.566 1.48-17.23 1.48h-.491c-8.664 0-17.229-1.48-17.229-1.48v-4.885s-3.455-.586-7.99-1.885c-16.022-4.606-27.382-10.735-27.382-10.735l1.924 7.189 1.811 6.589-6.431 2.443-7.134 2.653c8.187 3.922 19.519 9.646 29.896 12.465l-2.443 6.646s13.157 5.96 35.076 6.016v.014h.31v-.014c21.947-.056 35.09-6.016 35.09-6.016l-2.458-6.646c10.378-2.819 21.738-8.543 29.882-12.465l-7.119-2.653Zm-110.622 3.099 10.559-3.49-3.117-10.12c4.648 2.624 15.081 6.561 21.119 8.389l-5.098 13.917c-9.323-2.554-17.088-5.527-23.463-8.696Zm55.086 21.191c-12.258 0-26.259-2.806-30.373-4.257l6.263-16.85c5.195 1.507 16.008 3.113 23.857 3.057h.492c7.849.056 18.633-1.55 23.857-3.057l6.248 16.85c-4.114 1.465-18.1 4.257-30.344 4.257Zm31.594-12.495-5.083-13.917c6.053-1.828 16.457-5.765 21.119-8.389l-3.103 10.12 10.545 3.49c-6.389 3.169-14.112 6.142-23.478 8.696ZM188.291 35.4442c13.059 0 23.506 4.2998 29.277 8.8925 0 0 1.713-10.2605 7.569-19.3202l-10.517 1.1864-5.505-11.6284-10.573 5.4166-10.251-10.0789-10.223 10.0789-10.587-5.4166-5.49 11.6284-10.518-1.1864c5.855 9.0597 7.569 19.3202 7.569 19.3202 5.785-4.5927 16.204-8.8925 29.249-8.8925Zm-26.778-5.1647 2.921.3072 1.263-2.6391 3.68-7.8173 6.824 3.5039 2.64 1.3407 2.107-2.0663 7.357-7.259 7.372 7.259 2.106 2.0663 2.64-1.3407 6.782-3.5039 3.722 7.8173 1.235 2.6391 2.921-.3072 2.78-.3352c-1.278 2.8616-2.218 5.5695-2.892 7.8174-7.358-4.0766-16.935-6.3935-26.694-6.3935-9.717 0-19.279 2.3169-26.665 6.3935-.689-2.2479-1.615-4.9695-2.893-7.8174l2.794.3352ZM341.504 171.59c16.893 0 22.538-17.086 22.776-17.812l1.882-6.016-6.333.195h-.028c-2.233 0-20.866-.489-34.081-17.184l-1.249-1.55c-8.636-10.916-16.822-21.288-31.453-26.02.421-.377 1.025-.852 1.853-1.383 7.765-5.0808 12.287-11.2509 13.424-18.4121 1.657-10.7776-5.251-19.3627-5.56-19.7115l-4.705-5.779-2.934 6.8542c-.196.4328-5.139 11.4054-15.531 11.4054h-.772c-.716-.0427-1.39-.0704-2.064-.1256.365-4.9001-.534-12.4806-7.442-19.5859-8.299-8.5573-18.493-9.8413-23.829-9.8413-2.851 0-4.747.3487-4.943.3768l-7.106 1.3959 4.382 5.7374c3.441 4.4254 6.557 12.5916 2.865 16.8637-1.18 1.3535-3.609 2.4563-5.94 3.5592-4.789 2.1913-11.318 5.2349-11.318 12.9958 0 5.0258 3.918 10.2752 11.023 14.742 21.034 13.15 34.01 26.872 39.612 42.019 8.664 23.298-2.64 36.587-13.621 43.582l-4.928 3.154 4.31 3.936c.576.503 5.856 5.124 13.649 5.794 1.474.098 2.893.182 4.213.182 4.998 0 9.254-.782 12.708-1.829-.955 1.661-2.121 3.35-3.595 5.053-6.277 7.231-14 10.525-25.107 10.694l-4.128.069-.323 4.119c-.043.822-.352 8.459 6.922 14.95 1.11 1.005 2.458 1.829 3.862 2.513-4.929 4.411-9.941 12.089-10.91 25.252-.815 10.986-3.454 15.049-3.483 15.092l-4.564 6.923 8.244.111c13.619 0 24.053-3.74 31.284-11.14 4.269-4.382 6.712-9.324 8.158-13.708 2.374 2.011 5.435 3.77 9.423 4.705 1.517.349 3.173.545 4.956.545 3.848 0 7.063-.811 7.428-.894l5.266-1.396-2.33-4.886c-.169-.391-4.564-10.19.168-24.178 2.036-6.044 3.075-11.461 3.581-15.677 3.314 1.718 7.751 3.141 13.493 3.156 13.031 0 18.775-9.675 19.042-10.08l2.569-4.439-4.76-1.954c-15.53-6.408-18.971-23.62-19.658-32.945 1.404.265 3.004.516 4.816.572h.786Zm12.315 36.492s-4.55 7.858-14.983 7.858h-.127c-12.525-.069-17.58-7.664-17.58-7.664s.731 9.884-3.791 23.215c-5.434 16.067.042 27.557.042 27.557s-2.92.781-6.291.781c-1.291 0-2.639-.125-3.903-.461-10.462-2.47-13.073-11.935-13.073-11.935s.969 31.982-36.537 31.982h-.294s3.299-4.467 4.282-17.325c1.783-23.73 17.945-26.983 17.945-26.983s-8.621-1.075-12.357-4.412c-5.841-5.262-5.434-11.349-5.434-11.349 13.199-.181 21.835-4.648 28.421-12.229 7.134-8.208 8.313-17.044 8.313-17.044s-7.091 6.394-20.811 6.394c-1.207 0-2.499-.056-3.818-.182-6.488-.516-10.981-4.62-10.981-4.62 14.28-9.102 24.306-24.988 15.418-48.915-7.12-19.167-24.223-33.489-41.438-44.2806-5.729-3.5585-8.917-7.5097-8.917-10.9164 0-8.0121 11.458-8.2633 16.162-13.6521 5.421-6.2534 2.023-16.4026-2.682-22.5025 0 0 1.587-.3215 4.087-.3215 4.956 0 13.536 1.2423 20.585 8.5013 9.366 9.6323 5.477 20.1159 5.477 20.1159l2.513.4887c1.502.3209 2.991.3768 4.536.4465.337 0 .673.0145 1.01.0145 13.607 0 19.687-14.1411 19.687-14.1411s14.464 17.6865-6.824 31.534c-3.665 2.3733-5.279 4.5653-4.859 6.9103l.337 1.536 1.516.265c15.433 4.16 23.241 14.742 32.775 26.775 14.477 18.301 34.964 18.887 37.492 18.887h.267s-4.676 14.672-18.452 14.672c-.225 0-.421 0-.66-.014-6.333-.224-9.576-2.639-9.576-2.639s-2.486 33.321 22.523 43.653Z" fill="black"/><path d="M311.833 105.047c6.305 3.337 9.97 7.803 13.186 11.768 3.159 3.867 6.165 7.594 10.854 9.143 1.671.573 3.441.838 5.238.838 7.05 0 14.126-4.286 16.809-10.219l2.696-5.946-6.531-.391c-.308-.014-8.705-.768-18.057-10.2743-3.848-3.8946-8.495-5.9471-13.509-5.9471-6.122 0-10.657 3.0436-11.162 3.35l-6.011 4.2024 6.487 3.476Zm10.701-6.5334c3.145 0 6.81 1.0615 10.278 4.6204 10.882 10.987 21.006 11.601 21.006 11.601-1.839 4.048-7.174 7.608-12.693 7.608-1.278 0-2.556-.196-3.833-.629-7.485-2.513-10.167-13.68-23.324-20.632 0 0 3.679-2.5684 8.566-2.5684ZM314.783 164.362v.223c-3.791-30.404-26.005-52.363-50.719-65.7222-2.289-1.2147-4.395-2.2472-6.445-3.2383 7.526 1.1581 19.644 1.2982 28.996-6.7705 0 0-14.309 10.4698-43.628.9635 8.116 5.2342 23.885 12.6195 38.279 24.5825 35.988 31.438 10.235 62.106 10.235 62.106 12.933-13.415 13.467-27.793 9.661-39.533 6.811 11.265 11.164 24.945 10.489 41.809-.996 24.164-14.35 45.062-28.406 61.855-6.754 8.152-8.27 18.161-8.27 18.161s2.723-8.836 10.544-17.924c15.068-17.533 27.944-35.75 29.629-61.995 1.559 4.761 7.977 18.009 18.156 22.992.029.014-12.764-7.65-18.521-37.509ZM122.983 276.86c-.014-.042-2.626-4.104-3.468-15.09-.984-13.165-5.983-20.842-10.925-25.253 1.432-.67 2.752-1.493 3.861-2.513 7.261-6.492 6.952-14.128 6.91-14.95l-.281-4.118-4.157-.07c-11.079-.182-18.816-3.476-25.0932-10.694-1.4598-1.703-2.6395-3.392-3.5949-5.053 3.4549 1.047 7.6817 1.829 12.6943 1.829 1.3478 0 2.7378-.084 4.2128-.182 7.793-.67 13.073-5.277 13.663-5.793l4.311-3.937-4.929-3.154c-11.023-7.008-22.2849-20.298-13.635-43.583 5.603-15.146 18.564-28.867 39.626-42.018 7.105-4.4666 10.995-9.716 10.995-14.7418 0-7.7609-6.516-10.8176-11.303-12.9958-2.331-1.1029-4.76-2.2058-5.941-3.5592-3.706-4.2584-.575-12.4381 2.852-16.8636l4.408-5.7374-7.133-1.396c-.21-.028-2.078-.3767-4.943-.3767-5.335 0-15.502 1.284-23.815 9.8413-6.922 7.1197-7.8355 14.6995-7.4837 19.5858-.6747.0552-1.348.0829-2.0503.1256h-.7581c-10.4192 0-15.3477-10.9726-15.5443-11.4054l-2.9347-6.8541-4.747 5.779c-.2663.3488-7.203 8.9483-5.5183 19.7114 1.1238 7.1612 5.6452 13.3312 13.4104 18.4119.8424.53 1.4322 1.006 1.8537 1.383-14.6184 4.732-22.79 15.118-31.4265 26.034l-1.2493 1.55c-13.1994 16.695-31.8748 17.184-34.1074 17.184l-6.3613-.195 1.9378 6.016c.2244.726 5.8554 17.812 22.7617 17.812l.8148-.028c1.7833-.055 3.3838-.293 4.8167-.571-.7023 9.31-4.1427 26.523-19.6875 32.944l-4.7457 1.955 2.5698 4.438c.2525.405 6.0101 10.079 19.0687 10.079 5.7004-.014 10.1377-1.437 13.4656-3.154.5057 4.216 1.5447 9.631 3.5812 15.676 4.7318 13.988.3235 23.787.1545 24.178l-2.3304 4.886 5.2789 1.396c.3512.084 3.595.893 7.4286.893 1.7971 0 3.4542-.195 4.9429-.544 4.0013-.935 7.0906-2.694 9.4361-4.704 1.4315 4.383 3.8895 9.325 8.144 13.709 7.2457 7.397 17.6651 11.139 31.2851 11.139l8.257-.112-4.578-6.91Zm-3.988 2.555c-37.5058 0-36.5503-31.982-36.5503-31.982s-2.6125 9.465-13.0738 11.936c-1.2494.334-2.5836.46-3.8888.46-3.3707 0-6.2772-.781-6.2772-.781s5.4486-11.489.0138-27.557c-4.4931-13.331-3.7632-23.215-3.7632-23.215s-5.041 7.595-17.5801 7.664h-.1262c-10.4337 0-14.9834-7.859-14.9834-7.859 24.9948-10.316 22.5375-43.624 22.5375-43.624s-3.2431 2.402-9.5907 2.638c-.2242.015-.4353.015-.6595.015-13.7892 0-18.4512-14.672-18.4512-14.672h.2805c2.5418 0 23.0012-.586 37.4782-18.887 9.5341-12.034 17.3559-22.601 32.7601-26.775l1.5446-.265.336-1.535c.4222-2.346-1.179-4.538-4.8436-6.9103-21.2882-13.862-6.825-31.5351-6.825-31.5351s6.0523 14.127 19.6877 14.127c.3359 0 .645-.0138.9961-.0138 1.5309-.0842 3.0475-.1394 4.5355-.461l2.514-.4887s-3.89-10.4836 5.49-20.1153c7.05-7.2733 15.629-8.5013 20.571-8.5013 2.514 0 4.073.3208 4.073.3208-4.69 6.1142-8.088 16.2491-2.668 22.5033 4.689 5.3743 16.134 5.6393 16.134 13.6521 0 3.3922-3.188 7.3565-8.917 10.9164-17.23 10.7919-34.332 25.1139-41.4379 44.2799-8.8738 23.927 1.1383 39.799 15.4469 48.915 0 0-4.494 4.104-10.995 4.62-1.32.126-2.598.181-3.8338.181-13.705 0-20.7955-6.393-20.7955-6.393s1.179 8.836 8.2702 17.045c6.6283 7.579 15.2631 12.047 28.4631 12.228 0 0 .421 6.086-5.42 11.35-3.749 3.322-12.3708 4.41-12.3708 4.41s16.1758 3.253 17.9448 26.984c.97 12.858 4.241 17.325 4.241 17.325h-.267Z" fill="black"/><path d="M35.4601 126.81c1.811 0 3.5805-.265 5.252-.837 4.7174-1.55 7.7087-5.278 10.8683-9.144 3.2293-3.964 6.8663-8.432 13.1711-11.768l6.4869-3.462-6.0233-4.2014c-.5057-.321-5.0271-3.3508-11.1353-3.3508-5.0271 0-9.6886 2.0388-13.5229 5.9472-9.3512 9.493-17.7339 10.261-18.0436 10.274l-6.5289.377 2.6817 5.961c2.6958 5.905 9.7587 10.204 16.794 10.204Zm8.313-23.661c3.4825-3.5595 7.1471-4.6209 10.3067-4.6209 4.8581 0 8.5379 2.5679 8.5379 2.5679-13.1442 6.967-15.8402 18.12-23.3522 20.633-1.2356.432-2.5277.628-3.8054.628-5.5183 0-10.8544-3.546-12.6798-7.608 0-.014 10.1101-.628 20.9928-11.6ZM64.9322 178.796c-.7029-16.864 3.6509-30.544 10.4744-41.809-3.8047 11.74-3.2852 26.118 9.6617 39.533 0 0-25.753-30.669 10.2501-62.106 14.4076-11.963 30.1616-19.3485 38.2636-24.5827-29.304 9.5064-43.6128-.9634-43.6128-.9634 9.3512 8.0687 21.4698 7.9286 28.9958 6.756-2.036.9911-4.17 2.0249-6.431 3.2389-24.7421 13.3592-46.9422 35.3182-50.7469 65.7222v-.238c-5.7439 29.86-18.5217 37.524-18.5217 37.524 10.1667-4.984 16.5694-18.217 18.1285-22.992 1.6985 26.245 14.5749 44.461 29.6418 61.995 7.8211 9.088 10.5733 17.924 10.5733 17.924s-1.53-10.008-8.3126-18.161c-14.0279-16.766-27.3818-37.677-28.3642-61.841ZM179.826 117.276v6.03c2.093-2.527 6.137-2.01 6.137-2.01v8.697s-.141 4.271-1.671 6.128H193.04c-1.503-1.843-1.657-6.128-1.657-6.128v-8.697s4.044-.517 6.122 2.01v-6.03H179.826ZM176.061 81.5107c2.794 2.2057 4.409 2.5688 4.464 2.6102l1.096.5024v-5.6814l-10.279-4.2997c0 .0144.099 3.2948 4.719 6.8685ZM200.513 81.5107c4.649-3.5737 4.732-6.8685 4.732-6.8685l-10.278 4.2997v5.6814l1.081-.5024c.071-.0414 1.671-.4045 4.465-2.6102Z" fill="black"/><path d="M219.028 58.3796c0-8.6126-14.59-16.3603-30.696-16.3603h-.099c-16.105 0-30.694 7.7477-30.694 16.3603l.323 2.1223 6.43 36.6997-6.459 3.7264-16.71 9.703h.056s-3.762 1.912-5.504 3.099c-6.361 4.397-7.709 10.804-4.015 13.457.912-5.222 5.068-10.693 12.848-10.693 5.602 0 9.871 2.876 13.325 7.189.885 1.089 1.727 2.247 2.514 3.504.969 1.577 1.938 2.959 2.907 4.299h-43.039c3.16 6.324 6.164 13.024 6.164 20.298v94.701c0 22.922 17.736 33.867 36.917 33.867 14.828 0 16.822-.67 25.008 7.426 8.144-8.11 10.138-7.426 24.98-7.426 19.196 0 36.902-10.945 36.902-33.867v-94.701c0-7.274 3.006-13.974 6.179-20.298h-43.052c.955-1.326 1.923-2.722 2.893-4.299.799-1.257 1.628-2.415 2.499-3.504 3.483-4.328 7.736-7.189 13.34-7.189 7.779 0 11.921 5.458 12.848 10.693 3.693-2.653 2.359-9.06-4.044-13.457-1.713-1.187-5.476-3.099-5.476-3.099h.055l-16.709-9.703-6.431-3.7264 6.431-36.6997.309-2.1223Zm-55.157 4.2718 22.608 7.622v35.3036l-16.64-8.724-5.968-34.2016Zm4.676 74.9916c3.707 3.671 7.345 5.947 10.799 7.203-.45 1.772-1.04 5.43.631 9.073 1.363 2.932 3.834 5.193 7.387 6.701.393 3.63 2.696 9.088 9.084 11.503-2.794 2.806-5.519 5.444-6.627 6.519l-25.908-.405c-.589-.294-1.586-.949-2.036-1.884-.056-.126-.14-.196-.182-.336l4.227.684c.098.015.182.015.267.015.814 0 1.53-.559 1.67-1.396.141-.936-.491-1.787-1.404-1.927l-5.195-.809 5.771-19.809-5.463-11.433-8.762 9.213-.533 20.605-5.884-.922c-.913-.181-1.783.489-1.937 1.397-.141.906.477 1.758 1.404 1.926l2.471.377c-.884.502-1.46.893-1.531.949l-.505.349-.141.614c-1.432 5.779 1.812 11.266 5.308 13.722l-.127.727c-.139.892.057 1.758.59 2.484.506.74 1.292 1.187 2.163 1.34.183.028.379.042.548.042 1.516 0 2.837-1.047 3.215-2.568 1.306.152 2.5.181 3.314.181h.688l33.996 6.1.575-.377c2.711-1.885 13.031-9.367 16.415-11.837.927.795 1.966 1.521 3.23 2.122-1.096 3.657-1.166 9.283 3.173 13.722H132.6v-49.711c0-4.816-1.418-9.659-3.089-14.126h39.036v-.028Zm42.014 45.479c-3.441 2.513-12.287 8.935-15.489 11.169l-30.892-5.514c.071-.28.14-.545.211-.824.407-1.591.814-3.769.843-6.324l25.962.419.492-.503c.394-.39 8.622-8.291 12.82-12.843.997 1.243 2.247 2.43 3.877 3.476-.563 3.016-.324 7.315 2.176 10.944Zm-51.717-5.317c.731 1.521 2.05 2.54 2.963 3.112-.027 1.424-.168 3.644-.547 5.598-.085.433-.197.838-.324 1.243-.07.251-.14.461-.196.628-1.362 0-4.044-.167-6.235-.963-2.429-.894-6.052-5.319-5.209-10.191 1.053-.642 3.482-1.996 5.757-1.996 1.755-.014 2.949.809 3.791 2.569Zm-3.215-6.129.519-19.781 4.466-4.704 2.808 5.835-5.533 18.985-2.26-.335Zm54.651 102.548c-1.686 0-3.243.028-4.649.083l3.679-11.377c.576-1.577-2.331-3.602-3.523-5.375 1.81 1.132 6.501 3.602 8.762 4.593-.24.363-4.269 12.076-4.269 12.076Zm11.542-12.927-2.401 12.452c-1.531.209-3.159.321-4.83.39l2.527-11.977c.759-3.56-8.86-4.663-13.607-11.656-2.316 2.596-6.683 3.364-11.065 3.364-4.001 0-8.003-.642-10.433-1.117-.618-.097-1.207-.167-1.783-.167-1.404 0-2.682.433-3.566 1.913l-.703 1.172-13.1-3.072-3.259 5.362c-.463.865-.491 1.605.253 2.414l.885.963c-.604 1.899-3.327 4.761-3.327 4.761l-1.953-2.415c-1.544-1.718-1.292-4.844.323-7.748l5.196-8.724 11.093 1.591-1.728-3.909c-2.316-5.165 1.208-11.74 1.587-15.523-.126 1.144-1.179 1.396-2.415 1.396-1.123 0-2.373-.209-3.201-.209-.323 0-.605.028-.758.139l-3.006 1.815-2.373-2.079c-.28-.406-.379-1.341.323-2.039l5.491-6.114-6.488-7.525 9.085 4.538 2.767-3.337c.758.74.435 2.68.435 2.68 2.836.07 10.784 4.439 11.206 14.63.028.307.028.656.028.991 0 0 .07.125.21.335.562.768 2.106 2.736 4.072 2.918l12.554 1.229h.055c1.377 0 4.115-1.606 7.626-1.606 1.909 0 4.044.488 6.318 1.912 0 0 1.138-.893 2.991-.992.141-.013.295-.013.436-.013 5.631 0 7.962 5.054 10.981 9.255 2.274 3.197 5.307 7.944 5.307 7.944-1.123 1.325-2.162 2.051-3.904 2.051a8.776 8.776 0 0 1-1.615-.153c-6.037-1.103-6.908-13.444-10.348-14.42-.183-.056-.379-.07-.547-.07-1.11 0-1.602.977-1.602.977 1.573 4.202.661 5.905 2.345 9.144 1.265 2.4 3.511 4.383 4.437 5.318 0 .028-.252 1.843-.519 3.211Zm-67.415-11.782.575 1.438c-.379 1.256-4.732 3.043-4.732 3.043l-.94-2.038c-.998-2.177-.786-5.85 2.247-8.097l7.048-4.271 7.471 1.577c-.141 2.359 1.278 4.119 1.278 4.119l-7.836-1.495-4.69 3.225c-.786.544-.842 1.564-.421 2.499Zm68.595 23.55 2.148-11.14c.112-.656.252-1.424.351-2.066.604.251 1.249.461 1.952.586.8.153 1.544.224 2.218.224 3.286 0 5.196-1.717 6.473-3.183l1.658-1.913-1.348-2.094c-.127-.209-3.104-4.899-5.406-8.111-.449-.628-.885-1.256-1.321-1.94-2.611-3.88-5.883-8.752-12.44-8.752l-.59.014c-1.081.069-2.008.279-2.753.558-2.064-.963-4.184-1.452-6.388-1.452-2.71 0-4.999.74-6.516 1.257-.435.126-.828.265-1.137.32l-12.259-1.2c-.154-.028-.66-.321-1.264-1.047v-.056l2.654-1.06c-.743-8.781-9.225-14.183-13.958-16.012-.21-.88-.631-1.759-1.375-2.471l-2.641-2.485-2.316 2.764-1.137 1.41-17.16-7.007 11.163 13.931-4.408 6.631c-1.615 1.703.168 3.406.168 3.406l4.549 3.113 4.719-1.745c.168 0 .309.042.463.056-.225.712-.519 3.504-.716 4.285l-8.187-1.605-8.608 4.83c-4.423 3.225-5.026 8.571-3.384 12.229l.955 2.079 1.363 2.932 3.004-1.242c.043-.015.085-.028.112-.056-1.081 3.434-.645 6.701 1.293 8.85l1.825 2.29 2.429 3.057 2.668-2.848c.786-.781 3.328-3.616 4.114-6.044l.577-1.857-1.307-1.424-.21-.251 1.46-2.401 10.686 2.498 2.401.545 1.278-2.094.702-1.145c.126-.237.169-.279.66-.279.379 0 .759.042 1.166.126 4.029.754 7.75 1.131 11.051 1.131 3.201 0 5.11-.126 7.4-.879 0 0 5.742 6.476 5.939 6.728l-3.51 10.776-.155.657c-6.655.53-9.899 1.982-13.816 5.877-5.688-5.612-9.718-6.198-25.01-6.198-18.296 0-30.696-10.665-30.696-27.696V204.83h111.381l.029 41.642c.013 13.819-8.145 23.452-20.993 26.593Zm24.082-135.422c-1.7 4.467-3.118 9.311-3.118 14.127l.014 31.074c-6.529-1.09-7.302-8.083-7.33-8.39l-.126-1.424-1.404-.126c-2.837-.265-4.718-1.465-6.305-3.001-3.201-3.183-3.216-8.348-3.201-8.389-.043.264-3.525 5.109.519 10.399 1.699 2.234 4.156 3.602 7.344 4.147.744 3.88 3.651 9.352 10.503 10.19v15.216h-19.265c-8.889-4.914-5.125-13.569-4.943-13.931l.758-1.648-1.699-.642c-9.619-3.546-6.978-13.094-6.838-13.499l.393-1.396-1.305-.614c-7.949-3.657-6.867-13.527-6.769-13.932-2.443 1.969-3.328 5.989-1.643 9.926-.913 1.033-2.134 2.288-3.468 3.657-8.229-2.08-8.481-9.605-8.481-9.953l-.015-1.159-1.081-.419c-3.215-1.187-5.42-2.959-6.501-5.347-1.222-2.638-.787-5.402-.45-6.728.941.209 1.882.363 2.781.433.926.097 1.881.153 2.837.153h.126c.955 0 1.895-.056 2.822-.153 5.125-.503 10.868-2.695 16.85-8.586h38.995v.015Zm-30.022-31.41 7.611 4.398h.112l1.91 1.103c-4.298 1.186-7.583 3.322-10.335 6.128-.098.084-.197.195-.295.293-.632.67-1.264 1.396-1.854 2.135-.111.14-.225.294-.351.448-.59.753-1.137 1.521-1.671 2.331-.084.139-.183.279-.28.404-.632.936-1.236 1.941-1.84 2.974-5.42 9.283-14.07 14.825-21.765 14.839-7.681-.014-16.33-5.556-21.751-14.839-.59-1.005-1.179-1.982-1.811-2.932-.127-.181-.239-.363-.351-.516-.534-.768-1.067-1.522-1.615-2.234-.14-.195-.267-.348-.407-.516-.589-.712-1.194-1.424-1.798-2.08-.126-.098-.21-.223-.336-.336-2.766-2.805-6.039-4.927-10.35-6.099l1.938-1.103h.084l7.611-4.398 7.822-4.452 20.893 11.306.043-.041.056.041 20.894-11.306 7.836 4.452Zm-10.307-9.3669-16.654 8.7249V70.2734l22.593-7.622-5.939 34.2147Zm-18.464-30.4732-24.771-9.7301c2.107-4.9558 11.823-9.1716 24.771-9.1853 12.96.0137 22.677 4.2295 24.769 9.1853l-24.769 9.7301Z" fill="black"/></g><defs><clipPath id="clip0_163_777"><rect width="376" height="334" fill="white"/></clipPath></defs></svg>