<svg width="500" height="764" fill="none" xmlns="http://www.w3.org/2000/svg"><path d="M259.384-85.0711c-.2-3.0824 4.271-3.7166 4.936-.7001l12.328 55.9238c.805 3.655 6.013 3.6649 6.833.013l12.54-55.8764c.676-3.014 5.145-2.3628 4.933.7189l-3.927 57.1315c-.257 3.7339 4.737 5.2106 6.552 1.9376l27.775-50.08c1.498-2.7014 5.602-.8175 4.531 2.0797l-19.864 53.7107c-1.299 3.5103 3.077 6.3342 5.741 3.7051l40.759-40.2264c2.198-2.1698 5.605.7941 3.761 3.272L332.09-7.5231c-2.234 3.0024 1.169 6.9447 4.465 5.1726l50.441-27.1139c2.721-1.4626 5.155 2.3412 2.687 4.1992L343.934 9.1797c-2.99 2.2512-.835 6.9924 2.827 6.2209l56.036-11.8049c3.023-.6367 4.287 3.6988 1.396 4.7863l-53.6 20.1606c-3.503 1.3176-2.772 6.4738.959 6.7653l57.093 4.4606c3.079.2406 3.07 4.7567-.01 4.9855l-57.109 4.2431c-3.732.2773-4.483 5.4306-.985 6.7616l53.523 20.3647c2.887 1.0984 1.606 5.4291-1.414 4.7809L346.659 68.886c-3.659-.7854-5.832 3.9476-2.85 6.2101l45.617 34.6189c2.461 1.867.012 5.662-2.703 4.189l-50.337-27.3059c-3.29-1.7846-6.708 2.1447-4.485 5.1555l34.017 46.0684c1.835 2.485-1.584 5.436-3.774 3.258l-40.605-40.382c-2.654-2.6387-7.041.168-5.756 3.684l19.66 53.786c1.06 2.901-3.051 4.769-4.539 2.062l-27.584-50.185c-1.802-3.28-6.802-1.823-6.559 1.912l3.709 57.146c.201 3.083-4.271 3.717-4.936.7l-12.327-55.923c-.806-3.655-6.013-3.665-6.833-.013l-12.54 55.876c-.677 3.014-5.146 2.363-4.934-.719l3.928-57.131c.257-3.734-4.737-5.211-6.553-1.938l-27.774 50.08c-1.498 2.701-5.603.817-4.531-2.08l19.864-53.71c1.298-3.511-3.077-6.3346-5.741-3.706l-40.759 40.227c-2.198 2.17-5.606-.794-3.761-3.272l34.191-45.9387c2.235-3.0024-1.168-6.9447-4.465-5.1726l-50.44 27.1143c-2.721 1.462-5.155-2.342-2.688-4.2l45.749-34.4445c2.99-2.2512.836-6.9924-2.826-6.2209l-56.037 11.8049c-3.022.6367-4.286-3.6988-1.395-4.7863l53.6-20.1606c3.503-1.3177 2.772-6.4738-.96-6.7653l-57.092-4.4606c-3.079-.2406-3.071-4.7567.01-4.9855l57.109-4.2431c3.732-.2773 4.483-5.4306.985-6.7616L155.791 7.9088c-2.887-1.0984-1.607-5.4291 1.414-4.7809l55.991 12.0183c3.659.7854 5.831-3.9476 2.85-6.2101l-45.618-34.619c-2.46-1.8673-.011-5.6618 2.704-4.1889l50.337 27.3059c3.29 1.7846 6.708-2.1447 4.484-5.1555L193.937-53.79c-1.835-2.4849 1.584-5.4358 3.774-3.2576l40.605 40.3814c2.654 2.6391 7.04-.168 5.755-3.6833l-19.659-53.786c-1.061-2.9012 3.051-4.7694 4.539-2.0624l27.583 50.1854c1.803 3.28 6.803 1.8223 6.56-1.9125l-3.71-57.1461Z" stroke="white"/><path d="M18.7508 352.109c-1.5769-5.953 4.7472-10.895 10.1421-7.925L117.035 392.7c6.187 3.405 13.96 1.249 17.509-4.857l50.554-86.989c3.094-5.324 11.06-4.347 12.775 1.568l28.02 96.632c1.967 6.782 8.988 10.754 15.815 8.946l97.258-25.764c5.952-1.577 10.894 4.748 7.924 10.142l-48.516 88.143c-3.405 6.186-1.249 13.96 4.857 17.508l86.989 50.554c5.325 3.095 4.347 11.061-1.568 12.776l-96.632 28.02c-6.782 1.966-10.754 8.988-8.946 15.814l25.764 97.258c1.577 5.953-4.748 10.894-10.142 7.925l-88.143-48.516c-6.186-3.406-13.96-1.249-17.508 4.856l-50.554 86.99c-3.095 5.324-11.061 4.347-12.776-1.568l-28.019-96.632c-1.9671-6.783-8.9886-10.755-15.815-8.946l-97.258 25.763c-5.9528 1.577-10.8944-4.747-7.9249-10.142l48.5163-88.142c3.4052-6.187 1.2489-13.96-4.8567-17.509l-86.9895-50.554c-5.3243-3.094-4.3466-11.06 1.5678-12.775l96.6322-28.02c6.7825-1.967 10.7545-8.988 8.9462-15.814l-25.7636-97.258Z" stroke="white" stroke-width="6"/><path d="M497.009 113.249c.281-3.696 5.701-3.696 5.982 0l6.394 83.897c.244 3.199 4.663 3.834 5.798.834l29.771-78.697c1.312-3.467 6.511-1.94 5.74 1.685l-17.501 82.3c-.667 3.138 3.393 4.992 5.328 2.433l50.737-67.122c2.235-2.957 6.794-.027 5.033 3.235l-39.979 74.035c-1.525 2.823 1.849 5.746 4.426 3.836l67.592-50.109c2.978-2.207 6.527 1.888 3.918 4.522l-59.218 59.773c-2.258 2.279.156 6.034 3.167 4.927l78.971-29.036c3.479-1.279 5.73 3.65 2.485 5.442l-73.659 40.668c-2.808 1.551-1.551 5.834 1.65 5.62l83.953-5.611c3.699-.247 4.47 5.117.852 5.922l-82.133 18.269c-3.132.696-3.132 5.16 0 5.856l82.133 18.269c3.618.805 2.847 6.169-.852 5.922l-83.953-5.611c-3.201-.214-4.458 4.069-1.65 5.62l73.659 40.668c3.245 1.792.994 6.721-2.485 5.442l-78.971-29.036c-3.011-1.107-5.425 2.648-3.167 4.927l59.218 59.773c2.609 2.634-.94 6.729-3.918 4.522l-67.592-50.109c-2.577-1.91-5.951 1.013-4.426 3.836l39.979 74.035c1.761 3.262-2.798 6.192-5.033 3.235l-50.737-67.122c-1.935-2.559-5.995-.705-5.328 2.433l17.501 82.3c.771 3.625-4.428 5.152-5.74 1.685l-29.771-78.697c-1.135-3-5.554-2.365-5.798.834l-6.394 83.897c-.281 3.696-5.701 3.696-5.982 0l-6.394-83.897c-.244-3.199-4.663-3.834-5.798-.834l-29.771 78.697c-1.312 3.467-6.511 1.94-5.74-1.685l17.501-82.3c.667-3.138-3.393-4.992-5.328-2.433l-50.737 67.122c-2.235 2.957-6.794.027-5.033-3.235l39.979-74.035c1.525-2.823-1.849-5.746-4.426-3.836l-67.592 50.109c-2.978 2.207-6.527-1.888-3.918-4.522l59.218-59.773c2.258-2.279-.156-6.034-3.167-4.927l-78.971 29.036c-3.479 1.279-5.73-3.65-2.485-5.442l73.659-40.668c2.808-1.551 1.551-5.834-1.65-5.62l-83.953 5.611c-3.699.247-4.47-5.117-.852-5.922l82.133-18.269c3.132-.696 3.132-5.16 0-5.856l-82.133-18.269c-3.618-.805-2.847-6.169.852-5.922l83.953 5.611c3.201.214 4.458-4.069 1.65-5.62l-73.659-40.668c-3.245-1.792-.994-6.721 2.485-5.442l78.971 29.036c3.011 1.107 5.425-2.648 3.167-4.927l-59.218-59.773c-2.609-2.634.94-6.729 3.918-4.522l67.592 50.109c2.577 1.91 5.951-1.013 4.426-3.836l-39.979-74.035c-1.761-3.262 2.798-6.192 5.033-3.235l50.737 67.122c1.935 2.559 5.995.705 5.328-2.433l-17.501-82.3c-.771-3.625 4.428-5.152 5.74-1.685l29.771 78.697c1.135 3 5.554 2.365 5.798-.834l6.394-83.897Z" fill="white"/></svg>